<svg width="355" height="360" viewBox="0 0 355 360" fill="none" xmlns="http://www.w3.org/2000/svg">
<path d="M222.373 222.055C263.259 183.827 263.259 121.848 222.373 83.6207C181.487 45.3933 115.198 45.3933 74.3123 83.6207C33.4264 121.848 33.4263 183.827 74.3123 222.055C115.198 260.282 181.487 260.282 222.373 222.055Z" fill="white"/>
<path d="M148.344 251.317C120.21 251.317 93.7598 241.072 73.8662 222.472C53.9725 203.872 43.0151 179.141 43.0151 152.837C43.0151 126.532 53.9725 101.802 73.8662 83.2015C93.7598 64.6013 120.21 54.3564 148.344 54.3564C176.478 54.3564 202.928 64.6013 222.822 83.2015C242.716 101.802 253.673 126.532 253.673 152.837C253.673 179.141 242.716 203.872 222.822 222.472C202.932 241.072 176.482 251.317 148.344 251.317ZM148.344 55.5833C121.695 55.5833 95.0467 65.0668 74.7606 84.0338C55.1075 102.409 44.2809 126.844 44.2809 152.833C44.2809 178.822 55.1032 203.256 74.7606 221.632C94.4138 240.007 120.548 250.129 148.344 250.129C176.14 250.129 202.274 240.007 221.927 221.632C241.581 203.256 252.407 178.822 252.407 152.833C252.407 126.844 241.581 102.409 221.927 84.0338C201.641 65.0708 174.993 55.5833 148.344 55.5833Z" fill="black"/>
<path d="M333.813 326.412C338.117 322.388 338.117 315.863 333.813 311.839L234.016 218.527L218.43 233.1L318.227 326.408C322.531 330.436 329.509 330.436 333.813 326.412Z" fill="white"/>
<path d="M326.02 330.013C323.037 330.013 320.05 328.952 317.78 326.826L217.978 233.518C217.729 233.285 217.729 232.91 217.978 232.681L233.564 218.109C233.8 217.888 234.222 217.888 234.459 218.109L334.256 311.417C338.8 315.666 338.8 322.577 334.256 326.826C331.99 328.952 329.003 330.013 326.02 330.013ZM219.324 233.099L318.674 325.994C322.725 329.781 329.315 329.781 333.366 325.994C337.416 322.206 337.416 316.045 333.366 312.257L234.016 219.363L219.324 233.099Z" fill="black"/>
<path d="M285.71 273.921L277.296 266.055L285.71 273.921Z" fill="white"/>
<path d="M285.71 274.513C285.549 274.513 285.385 274.454 285.262 274.339L276.849 266.473C276.6 266.24 276.6 265.866 276.849 265.637C277.098 265.404 277.499 265.404 277.744 265.637L286.157 273.503C286.406 273.736 286.406 274.11 286.157 274.339C286.035 274.457 285.874 274.513 285.71 274.513Z" fill="black"/>
<path d="M312.548 314.04L322.003 322.881C324.219 324.952 327.826 324.952 330.041 322.881C332.256 320.81 332.256 317.441 330.041 315.366L296.832 284.316L312.548 314.04Z" fill="white"/>
<path d="M326.02 325.027C324.404 325.027 322.784 324.451 321.556 323.299L312.101 314.459C311.852 314.226 311.852 313.851 312.101 313.622C312.35 313.39 312.751 313.39 312.996 313.622L322.451 322.463C324.421 324.305 327.624 324.305 329.594 322.463C331.564 320.621 331.564 317.626 329.594 315.788L296.384 284.738C296.136 284.505 296.136 284.13 296.384 283.902C296.633 283.669 297.034 283.669 297.279 283.902L330.489 314.952C332.953 317.256 332.953 320.999 330.489 323.303C329.257 324.451 327.636 325.027 326.02 325.027Z" fill="black"/>
<path d="M237.745 254.22L256.601 236.591C257.85 235.423 257.85 233.533 256.601 232.37L247.829 224.168C246.581 223.001 244.56 223.001 243.315 224.168L224.459 241.798C223.21 242.966 223.21 244.855 224.459 246.019L233.231 254.22C234.476 255.384 236.501 255.384 237.745 254.22Z" fill="white"/>
<path d="M235.488 255.684C234.509 255.684 233.53 255.337 232.784 254.639L224.012 246.437C222.518 245.041 222.518 242.772 224.012 241.38L242.868 223.75C243.589 223.075 244.551 222.701 245.572 222.701C246.593 222.701 247.555 223.071 248.277 223.75L257.048 231.951C258.542 233.348 258.542 235.616 257.048 237.009L238.193 254.639C237.446 255.337 236.467 255.684 235.488 255.684ZM245.572 223.884C244.889 223.884 244.247 224.133 243.762 224.586L224.906 242.216C223.906 243.151 223.906 244.67 224.906 245.601L233.678 253.802C234.678 254.737 236.302 254.737 237.298 253.802L256.154 236.172C257.154 235.238 257.154 233.719 256.154 232.788L247.382 224.586C246.901 224.133 246.256 223.884 245.572 223.884Z" fill="black"/>
<path d="M254.285 269.685L273.141 252.055C274.39 250.887 274.39 248.998 273.141 247.834L264.369 239.632C263.12 238.465 261.099 238.465 259.854 239.632L240.999 257.262C239.75 258.43 239.75 260.319 240.999 261.483L249.77 269.685C251.015 270.848 253.04 270.848 254.285 269.685Z" fill="white"/>
<path d="M252.028 271.148C251.049 271.148 250.07 270.801 249.323 270.103L240.551 261.901C239.058 260.505 239.058 258.236 240.551 256.844L259.407 239.214C260.129 238.54 261.091 238.165 262.112 238.165C263.133 238.165 264.095 238.536 264.816 239.214L273.588 247.416C275.082 248.812 275.082 251.08 273.588 252.473L254.732 270.103C253.985 270.801 253.007 271.148 252.028 271.148ZM262.116 239.348C261.432 239.348 260.791 239.597 260.306 240.05L241.45 257.68C240.45 258.615 240.45 260.13 241.45 261.065L250.218 269.266C251.213 270.197 252.838 270.201 253.838 269.266L254.285 269.684L253.838 269.266L272.693 251.637C273.693 250.702 273.693 249.183 272.693 248.252L263.922 240.05C263.441 239.597 262.799 239.348 262.116 239.348Z" fill="black"/>
<path d="M54.1118 166.379L234.64 190.782C230.075 199.86 223.784 208.369 215.763 215.868C213.662 217.833 211.485 219.679 209.249 221.418L69.1407 202.479C61.1959 191.425 56.1877 179.07 54.1118 166.379Z" fill="white" stroke="black" stroke-width="2"/>
<path d="M80.9295 89.8017C90.2371 81.0992 100.992 74.5704 112.473 70.2192L207.734 83.0954C210.511 85.1664 213.194 87.3992 215.764 89.8017C242.315 114.627 249.927 150.45 238.611 181.583L53.091 156.506C52.0362 132.485 61.3143 108.141 80.9295 89.8017Z" fill="white" stroke="black" stroke-width="2"/>
<path d="M54.1162 139.811C54.0825 139.811 54.053 139.807 54.0192 139.803C53.6732 139.752 53.4369 139.452 53.4918 139.128C54.939 130.339 57.7574 121.834 61.8712 113.857C62.0231 113.561 62.4028 113.439 62.715 113.581C63.0315 113.723 63.1623 114.078 63.0104 114.37C58.9515 122.244 56.1668 130.635 54.7407 139.31C54.6943 139.602 54.4242 139.811 54.1162 139.811Z" fill="black"/>
<path d="M166.555 240.938C166.259 240.938 165.994 240.74 165.935 240.456C165.867 240.137 166.091 239.825 166.437 239.762C184.993 236.401 201.895 227.995 215.316 215.446C233.206 198.719 243.058 176.482 243.058 152.829C243.058 129.175 233.206 106.938 215.316 90.2114C197.427 73.4851 173.643 64.2738 148.345 64.2738C123.046 64.2738 99.2622 73.4851 81.3727 90.2114C81.1237 90.4441 80.7229 90.4441 80.4782 90.2114C80.2293 89.9787 80.2293 89.6039 80.4782 89.3751C98.604 72.4278 122.709 63.0942 148.345 63.0942C173.981 63.0942 198.081 72.4278 216.211 89.3751C234.337 106.322 244.324 128.859 244.324 152.829C244.324 176.798 234.341 199.331 216.211 216.282C202.612 228.997 185.482 237.517 166.677 240.922C166.635 240.938 166.597 240.938 166.555 240.938Z" fill="black"/>
<path d="M247.492 23.8113C193.338 22.4346 148.538 52.3407 147.424 90.6022C146.927 107.723 155.264 123.617 169.478 136.079L151.475 173.591L199.11 153.689C212.342 158.861 227.413 161.969 243.463 162.379C297.616 163.756 342.416 133.85 343.53 95.5886C344.644 57.3231 301.646 25.1881 247.492 23.8113Z" fill="#FDAD00"/>
<path d="M286.33 24.502C286.212 24.502 286.09 24.4783 285.976 24.427C284.723 23.8787 283.427 23.3422 282.136 22.8333C281.706 22.6637 281.503 22.2021 281.685 21.7997C281.866 21.3973 282.36 21.208 282.79 21.3776C284.102 21.8944 285.414 22.4388 286.689 22.995C287.111 23.1804 287.292 23.6499 287.098 24.0444C286.955 24.3323 286.651 24.502 286.33 24.502Z" fill="black"/>
<path d="M237.412 152.711C236.201 152.711 234.991 152.695 233.775 152.663C229.721 152.561 225.641 152.281 221.654 151.831C221.189 151.78 220.86 151.385 220.915 150.955C220.97 150.521 221.392 150.214 221.852 150.265C225.788 150.707 229.818 150.983 233.818 151.085C287.41 152.45 331.919 122.828 333.02 85.0599C333.645 63.6194 320.358 43.461 296.57 29.7565C296.174 29.5277 296.051 29.0424 296.296 28.6716C296.541 28.3008 297.06 28.1864 297.456 28.4152C309.076 35.1097 318.607 43.6898 325.025 53.2285C331.771 63.2565 335.028 73.9826 334.708 85.1072C334.164 103.869 323.333 121.227 304.211 133.988C286.039 146.115 262.441 152.711 237.412 152.711Z" fill="black"/>
<path d="M141.813 163.875C141.593 163.875 141.378 163.796 141.214 163.642C140.965 163.409 140.897 163.058 141.041 162.762L158.799 125.759C144.205 112.781 136.438 96.575 136.919 80.0735C137.463 61.3155 148.294 43.9541 167.415 31.1924C186.465 18.478 211.481 11.8466 237.851 12.5133C244.062 12.6711 250.264 13.2392 256.289 14.2017C256.749 14.2767 257.057 14.683 256.977 15.113C256.897 15.543 256.466 15.831 256.002 15.756C250.057 14.8053 243.931 14.2451 237.8 14.0873C211.806 13.4246 187.144 19.9534 168.39 32.4705C149.711 44.9403 139.129 61.8599 138.598 80.1129C138.125 96.3225 145.863 112.26 160.386 124.99C160.647 125.219 160.728 125.582 160.58 125.889L143.484 161.516L189.102 142.458C189.313 142.367 189.558 142.367 189.773 142.45C193.773 144.012 197.958 145.389 202.211 146.541C202.658 146.663 202.916 147.101 202.789 147.519C202.658 147.937 202.19 148.178 201.743 148.06C197.545 146.924 193.414 145.57 189.456 144.04L142.15 163.8C142.045 163.855 141.927 163.875 141.813 163.875Z" fill="black"/>
<path d="M241.433 123.104C237.737 123.104 234.742 125.905 234.742 129.361V129.791C234.742 133.246 237.737 136.047 241.433 136.047C245.129 136.047 248.125 133.246 248.125 129.791V129.361C248.121 125.905 245.125 123.104 241.433 123.104Z" fill="white"/>
<path d="M265.863 49.3032C260.42 45.0309 252.998 42.8967 243.598 42.8967C239.4 42.8967 234.948 43.3346 230.252 44.2143C227.522 44.7232 225.071 45.2716 222.894 45.8593C220.354 46.5418 218.611 48.7233 218.611 51.1968C218.611 55.1377 222.869 57.8163 226.78 56.3527C227.649 56.0253 228.497 55.7255 229.269 55.4691C233.488 54.0805 237.961 53.3822 242.682 53.3822C247.973 53.3822 252.289 54.5184 255.635 56.7867C258.981 59.055 260.652 62.4989 260.652 67.1183C260.652 70.6332 259.951 73.5248 258.555 75.7971C257.154 78.0654 255.188 80.2627 252.652 82.389C250.555 84.2273 247.855 86.0499 244.551 87.8487C243.75 88.2866 242.961 88.7166 242.184 89.1348C237.944 91.4346 235.336 95.6636 235.336 100.248V105.901C235.336 108.875 237.813 111.412 240.994 111.518C244.336 111.629 247.079 109.131 247.079 106.035V104.966C247.079 100.563 249.5 96.4841 253.471 94.1132C254.758 93.344 256.015 92.5668 257.247 91.7778C260.437 89.7344 263.259 87.545 265.706 85.2175C268.2 82.8072 270.208 80.0339 271.74 76.9096C273.272 73.7813 274.035 70.2151 274.035 66.2071C274.031 59.2049 271.305 53.5755 265.863 49.3032Z" fill="white"/>
<path d="M86.3761 148.556C84.2032 149.065 82.0767 147.369 78.7814 144.738C74.7732 141.542 71.9843 139.314 71.8324 135.724C71.7016 132.576 73.6593 129.649 75.9166 128.086C77.2119 127.191 79.1781 126.777 83.1062 125.948C87.6039 125.002 88.1819 125.376 90.7852 124.422C93.8188 123.309 94.2913 122.343 95.6879 122.587C97.9452 122.986 99.9831 126.098 99.9367 129.006C99.8776 132.852 96.2195 133.428 92.0931 139.7C88.646 144.939 88.954 147.953 86.3761 148.556Z" fill="black"/>
<path d="M74.6638 161.492C82.001 159.255 93.182 157.65 106.544 161.626C111.418 163.078 114.911 167.09 115.514 171.835L126.4 230.441C126.94 234.701 120.847 238.843 116.557 240.362C112.076 241.952 105.3 243.451 95.7051 243.451C85.4186 243.451 77.9463 244.007 73.7735 242.299C70.3095 240.883 65.0988 237.451 64.9258 233.92L65.681 173.682C65.4068 168.198 69.0733 163.196 74.6638 161.492Z" fill="#CEDDF8"/>
<path d="M126.071 186.676C126.071 186.676 117.379 164.171 107.637 162.009L112.591 193.899L126.071 186.676Z" fill="#CEDDF8"/>
<path d="M50.5972 195.753C50.5972 195.753 54.0738 183.666 56.7404 176.869C62.1326 163.133 73.6722 161.839 73.6722 161.839V195.654L50.5972 195.753Z" fill="#CEDDF8"/>
<path d="M94.878 167.839C85.3299 167.839 76.9589 164.186 76.5539 164.009C76.2374 163.87 76.1024 163.515 76.2543 163.22C76.402 162.924 76.7817 162.797 77.0982 162.939C77.2079 162.987 88.3045 167.823 99.1648 166.383C99.5065 166.336 99.8314 166.561 99.882 166.884C99.9327 167.208 99.6922 167.508 99.3462 167.555C97.8399 167.752 96.3463 167.839 94.878 167.839Z" fill="black"/>
<path d="M91.2365 207.114L133.914 207.055C134.994 207.055 135.935 206.365 136.197 205.383L144.758 172.892C145.125 171.504 143.998 170.163 142.471 170.167L99.7932 170.226C98.713 170.226 97.7721 170.916 97.5105 171.898L88.9497 204.388C88.5826 205.777 89.7092 207.118 91.2365 207.114Z" fill="#CEDDF8" stroke="black" stroke-width="2"/>
<path d="M91.2323 207.706C90.3083 207.706 89.4518 207.315 88.8822 206.637C88.3126 205.958 88.1101 205.087 88.3337 204.246L96.8946 171.756C97.2237 170.506 98.4135 169.634 99.7889 169.634L142.466 169.575H142.471C143.395 169.575 144.251 169.965 144.821 170.644C145.39 171.322 145.593 172.194 145.369 173.034L136.808 205.525C136.479 206.771 135.29 207.647 133.914 207.647L91.2366 207.706H91.2323ZM142.471 170.754C142.471 170.754 142.466 170.754 142.471 170.754L99.7932 170.813C99 170.813 98.3164 171.318 98.1266 172.036L89.5657 204.526C89.4392 205.012 89.5531 205.513 89.8822 205.903C90.2113 206.294 90.7049 206.519 91.2366 206.519C91.2366 206.519 91.2366 206.519 91.2408 206.519L133.918 206.459C134.712 206.459 135.395 205.955 135.585 205.237L144.146 172.746C144.272 172.261 144.158 171.76 143.829 171.37C143.496 170.979 143.002 170.754 142.471 170.754Z" fill="black"/>
<path d="M141.61 186.309L140.361 189.56L130.092 185.008C130.092 185.008 124.455 189.584 138.142 195.418C143.851 197.848 141.61 186.309 141.61 186.309Z" fill="white"/>
<path d="M139.576 196.349C139.062 196.349 138.496 196.219 137.885 195.958C131.982 193.442 128.779 190.795 128.357 188.092C128.024 185.938 129.611 184.621 129.678 184.566C129.868 184.412 130.138 184.376 130.366 184.479L140.003 188.751L141.015 186.116C141.112 185.864 141.378 185.706 141.665 185.725C141.952 185.749 142.184 185.946 142.235 186.211C142.386 187.004 143.661 194.002 141.087 195.876C140.648 196.191 140.142 196.349 139.576 196.349ZM130.243 185.729C129.923 186.116 129.442 186.885 129.615 187.939C129.868 189.505 131.598 191.978 138.408 194.878C139.657 195.41 140.146 195.051 140.306 194.937C141.412 194.132 141.543 191.323 141.319 188.818L140.956 189.761C140.897 189.919 140.766 190.045 140.602 190.108C140.437 190.171 140.252 190.167 140.087 190.096L130.243 185.729Z" fill="black"/>
<path d="M79.043 177.256C79.043 177.256 59.8751 187.351 55.9259 190.519C51.9724 193.686 47.6857 196.093 53.2762 202.996C58.8667 209.9 82.6041 182.179 82.6041 182.179C82.6041 182.179 87.1735 182.881 88.7599 177.059C88.7599 177.059 96.4727 177.307 96.7512 175.043L85.8698 173.24C84.4648 173.007 83.0218 173.441 82.026 174.396L79.043 177.256Z" fill="white"/>
<path d="M55.7404 204.693C55.7193 204.693 55.6982 204.693 55.6813 204.693C54.4577 204.677 53.4789 204.227 52.7743 203.355C47.2555 196.535 50.9895 193.615 54.6054 190.791C54.9092 190.554 55.213 190.313 55.5168 190.073C59.3816 186.976 77.1277 177.591 78.655 176.786L81.5705 173.99C82.7139 172.889 84.3637 172.396 85.9754 172.664L96.8568 174.467C97.1859 174.522 97.4137 174.806 97.3758 175.118C97.0804 177.548 91.317 177.698 89.2369 177.67C87.7137 182.487 84.081 182.822 82.8912 182.798C80.7014 185.315 63.6683 204.693 55.7404 204.693ZM85.1105 173.769C84.1274 173.769 83.1738 174.139 82.4734 174.81L79.4947 177.67C79.4525 177.71 79.4061 177.745 79.3512 177.773C79.1614 177.875 60.1959 187.876 56.3353 190.968C56.0273 191.213 55.7193 191.457 55.4113 191.698C51.8207 194.503 48.9854 196.72 53.7784 202.641C54.2426 203.217 54.8712 203.501 55.694 203.509C55.7109 203.509 55.7277 203.509 55.7446 203.509C63.4363 203.513 81.9207 182.025 82.1064 181.808C82.2498 181.643 82.4777 181.56 82.7013 181.595C82.8616 181.619 86.7264 182.104 88.1399 176.913C88.2116 176.644 88.4605 176.455 88.7728 176.467C91.2663 176.546 94.6206 176.234 95.7345 175.477L85.7476 173.82C85.5366 173.788 85.3214 173.769 85.1105 173.769Z" fill="black"/>
<path d="M101.819 323.414L95.4648 341.143C95.4648 341.143 102.389 340.59 103.051 340.713C103.713 340.835 111.81 324.543 111.81 324.543L101.819 323.414Z" fill="white"/>
<path d="M95.4606 341.734C95.2665 341.734 95.0851 341.651 94.9627 341.509C94.8319 341.351 94.7939 341.146 94.8614 340.957L101.216 323.229C101.313 322.96 101.591 322.795 101.891 322.83L111.878 323.958C112.08 323.982 112.257 324.093 112.354 324.258C112.451 324.424 112.46 324.625 112.375 324.795C112.354 324.834 110.325 328.917 108.241 332.933C103.815 341.458 103.536 341.407 102.924 341.292C102.481 341.233 98.8064 341.47 95.5154 341.734C95.4985 341.734 95.4817 341.734 95.4606 341.734ZM102.254 324.061L96.3677 340.48C98.3043 340.33 101.654 340.093 102.823 340.109C103.832 338.846 108.076 330.61 110.861 325.035L102.254 324.061ZM103.135 340.125C103.148 340.125 103.156 340.129 103.165 340.129C103.156 340.129 103.144 340.129 103.135 340.125Z" fill="black"/>
<path d="M96.9158 337.245C96.9158 337.245 106.472 333.58 108.24 338.18C110.489 344.026 114.004 352.949 114.004 352.949C114.599 354.503 113.455 356.156 111.696 356.291C108.202 356.555 102.991 356.764 100.565 355.971C96.7344 354.713 90.376 343.375 90.376 343.375L92.3337 333.73C92.3379 333.73 95.8061 333.272 96.9158 337.245Z" fill="#CEDDF8" stroke="black" stroke-width="2"/>
<path d="M106.072 357.123C103.81 357.123 101.701 356.973 100.359 356.531C96.4054 355.233 90.4816 344.835 89.8192 343.651C89.7517 343.533 89.7306 343.399 89.7601 343.265L91.7178 333.619C91.7685 333.371 91.9836 333.177 92.2494 333.142C92.2874 333.138 95.8991 332.708 97.3252 336.468C99.034 335.896 103.692 334.546 106.62 335.765C107.7 336.215 108.447 336.961 108.839 337.978C111.063 343.758 114.565 352.653 114.599 352.744C114.953 353.663 114.831 354.657 114.265 355.47C113.7 356.287 112.784 356.799 111.747 356.878C109.996 357.013 107.979 357.123 106.072 357.123ZM91.0427 343.284C92.8697 346.511 97.8863 354.464 100.777 355.415C102.549 355.995 106.405 356.097 111.645 355.703C112.287 355.655 112.852 355.336 113.202 354.831C113.548 354.326 113.624 353.715 113.409 353.15C113.375 353.068 109.869 344.164 107.645 338.381C107.371 337.667 106.865 337.166 106.105 336.85C103.03 335.572 97.2155 337.773 97.1564 337.797C96.9876 337.86 96.7978 337.856 96.6332 337.777C96.4687 337.702 96.3505 337.564 96.3041 337.399C95.5615 334.748 93.7177 334.345 92.8655 334.306L91.0427 343.284Z" fill="black"/>
<path d="M111.556 353.021H101.738C101.388 353.021 101.105 352.756 101.105 352.429C101.105 352.101 101.388 351.837 101.738 351.837H111.556C111.907 351.837 112.189 352.101 112.189 352.429C112.189 352.756 111.907 353.021 111.556 353.021Z" fill="black"/>
<path d="M83.7979 327.769L85.9539 345.604L94.6413 343.375L93.9746 327.307L83.7979 327.769Z" fill="white"/>
<path d="M85.954 346.195C85.8274 346.195 85.7051 346.16 85.5996 346.093C85.4477 345.994 85.3464 345.84 85.3253 345.671L83.1651 327.836C83.144 327.674 83.1988 327.512 83.3128 327.386C83.4267 327.26 83.5912 327.185 83.7642 327.177L93.941 326.715C94.1098 326.707 94.2743 326.763 94.4009 326.869C94.5275 326.976 94.5992 327.126 94.6076 327.283L95.2743 343.351C95.2869 343.627 95.0929 343.872 94.8102 343.943L86.1228 346.172C86.0679 346.187 86.0131 346.195 85.954 346.195ZM84.5026 328.329L86.5025 344.85L93.9916 342.929L93.3672 327.926L84.5026 328.329Z" fill="black"/>
<path d="M85.1353 358.744H98.8815C100.742 358.744 102.168 357.202 101.898 355.482C101.438 352.578 99.9448 347.765 95.4639 341.142C94.9745 340.42 94.1222 339.978 93.2067 339.978H89.0254C88.3039 339.978 87.7006 340.487 87.6246 341.158L87.3082 343.978L85.4897 341.73C85.4897 341.73 82.2409 348.128 82.089 355.841C82.0552 357.434 83.4307 358.744 85.1353 358.744Z" fill="#CEDDF8"/>
<path d="M98.8819 359.336H85.1356C84.1399 359.336 83.2074 358.969 82.507 358.302C81.8108 357.64 81.4353 356.76 81.4522 355.829C81.6041 348.077 84.777 341.742 84.912 341.477C85.0048 341.292 85.1989 341.162 85.4183 341.142C85.6377 341.122 85.8529 341.209 85.9879 341.375L86.8402 342.428L86.9878 341.099C87.0975 340.124 87.9709 339.391 89.0173 339.391H93.1986C94.3377 339.391 95.3841 339.927 95.9917 340.827C100.544 347.557 102.055 352.464 102.519 355.395C102.675 356.385 102.363 357.383 101.667 358.141C100.97 358.898 99.9535 359.336 98.8819 359.336ZM85.6419 342.902C84.7727 344.917 82.8361 350.034 82.7222 355.853C82.7095 356.464 82.9543 357.036 83.4141 357.474C83.874 357.912 84.4858 358.152 85.1398 358.152H98.8861C99.5907 358.152 100.257 357.868 100.717 357.367C101.177 356.87 101.38 356.216 101.278 355.569C100.831 352.748 99.3713 348.014 94.9327 341.462C94.5614 340.913 93.9032 340.574 93.207 340.574H89.0257C88.6291 340.574 88.2958 340.854 88.2536 341.225L87.9372 344.046C87.9119 344.286 87.7262 344.487 87.4773 344.554C87.2283 344.622 86.9583 344.535 86.8022 344.341L85.6419 342.902Z" fill="black"/>
<path d="M100.565 356.262H84.1104C83.7602 356.262 83.4775 355.998 83.4775 355.671C83.4775 355.343 83.7602 355.079 84.1104 355.079H100.565C100.916 355.079 101.198 355.343 101.198 355.671C101.198 355.998 100.916 356.262 100.565 356.262Z" fill="black"/>
<path d="M116.421 220.669C116.058 219.848 115.333 219.217 114.426 218.953C109.401 217.478 91.8781 213.596 73.8408 224.409C72.9885 224.918 72.4443 225.774 72.3725 226.717C71.7186 235.285 69.2883 280.087 84.448 333.134L94.6585 332.455L96.7386 241.754C96.7386 241.754 111.865 275.006 99.5655 327.923L110.185 329.757C110.185 329.757 125.729 310.648 128.509 281.452C130.973 255.621 119.177 226.941 116.421 220.669Z" fill="black"/>
<path d="M87.047 291.196C87.0386 291.196 87.0301 291.196 87.0175 291.196C77.3808 290.805 76.2922 278.588 76.2795 278.466C76.2542 278.138 76.5158 277.858 76.8618 277.83C77.2162 277.807 77.5158 278.051 77.5411 278.375C77.5495 278.489 78.5537 289.669 87.0681 290.012C87.4183 290.028 87.6883 290.304 87.6715 290.628C87.6672 290.947 87.3846 291.196 87.047 291.196Z" fill="white"/>
<path d="M97.6289 250.662C97.2871 250.662 97.0086 250.41 96.996 250.086L96.6373 238.741C96.6331 238.543 96.7302 238.354 96.9074 238.24L103.274 234.054C103.561 233.865 103.953 233.932 104.156 234.196C104.359 234.464 104.287 234.831 104.004 235.021L97.9158 239.021L98.266 250.047C98.2744 250.374 98.0002 250.646 97.65 250.654C97.6415 250.662 97.6331 250.662 97.6289 250.662Z" fill="white"/>
<path d="M82.132 158.655C84.0096 157.496 85.1023 155.503 85.0517 153.401L84.8365 144.671C84.7732 144.615 84.7099 144.56 84.6467 144.505C84.6467 144.505 80.9042 144.738 80.3599 142.959C79.8156 141.176 82.4611 140.836 82.4611 140.836C82.4611 140.836 79.9633 135.921 86.4272 135.976C88.1613 135.992 88.7815 133.302 91.6295 132.698C91.6295 132.698 93.0387 132.584 94.4648 136.039L97.5913 140.367L96.0302 141.168C96.4141 142.813 96.5829 144.627 96.3424 146.552C96.2749 147.105 95.8656 147.57 95.3002 147.744C94.8319 147.886 94.199 148.036 93.4522 148.119L93.9543 153.961C94.1737 156.517 95.6082 158.849 97.8571 160.324C100.026 161.748 102.03 162.754 102.03 162.754C102.03 162.754 90.5072 164.229 77.2588 161.401C77.263 161.393 79.8241 160.083 82.132 158.655Z" fill="white"/>
<path d="M94.3465 163.713C89.7812 163.713 83.638 163.358 77.1236 161.969C76.8662 161.914 76.6721 161.717 76.6383 161.472C76.6004 161.227 76.7312 160.991 76.9632 160.872C76.9885 160.861 79.5243 159.559 81.7858 158.158C83.4819 157.109 84.4692 155.334 84.4228 153.413L84.2203 145.109C83.0642 145.117 80.3133 144.931 79.7606 143.12C79.5749 142.521 79.6551 141.953 79.98 141.483C80.385 140.903 81.0854 140.584 81.6297 140.418C81.3639 139.602 81.0981 138.197 81.8829 137.049C82.6508 135.925 84.1739 135.369 86.4396 135.385C86.9501 135.396 87.3636 134.982 88.0134 134.315C88.8066 133.499 89.7897 132.485 91.4985 132.122C91.528 132.114 91.5533 132.11 91.5829 132.11C91.8951 132.087 93.5237 132.146 95.0384 135.763L98.1227 140.036C98.2239 140.174 98.2535 140.343 98.2155 140.505C98.1733 140.667 98.0594 140.805 97.9033 140.884L96.7514 141.475C97.1101 143.211 97.186 144.939 96.9793 146.616C96.8822 147.397 96.3042 148.059 95.5025 148.3C95.0595 148.434 94.6038 148.541 94.1397 148.616L94.5954 153.906C94.8021 156.288 96.127 158.45 98.2281 159.831C100.338 161.216 102.317 162.214 102.338 162.222C102.578 162.344 102.709 162.596 102.663 162.849C102.612 163.101 102.397 163.295 102.127 163.33C102.059 163.342 99.034 163.713 94.3465 163.713ZM79.018 161.141C88.2075 162.88 96.4097 162.596 100.013 162.336C99.2914 161.926 98.4138 161.401 97.494 160.801C95.0806 159.216 93.5617 156.738 93.3254 154.004L92.8233 148.158C92.798 147.842 93.0427 147.558 93.3803 147.523C93.9709 147.46 94.5532 147.341 95.1059 147.172C95.435 147.073 95.6755 146.797 95.7135 146.478C95.9202 144.789 95.819 143.042 95.4097 141.29C95.3506 141.034 95.4772 140.769 95.7219 140.643L96.6755 140.154L93.9372 136.367C93.9119 136.331 93.8866 136.292 93.8697 136.248C92.8233 133.716 91.8698 133.345 91.6672 133.294C90.4057 133.59 89.6589 134.359 88.9374 135.104C88.2412 135.822 87.5197 136.564 86.4354 136.564C86.389 136.564 86.3468 136.564 86.3046 136.564C84.5789 136.564 83.444 136.939 82.9377 137.677C82.1571 138.813 83.0178 140.56 83.0263 140.576C83.1106 140.746 83.1064 140.947 83.0094 141.109C82.9123 141.274 82.7394 141.389 82.541 141.412C82.2499 141.452 81.3428 141.665 81.0263 142.122C80.9462 142.237 80.8534 142.43 80.9631 142.785C81.2922 143.862 83.7604 143.957 84.6 143.905C84.773 143.894 84.9502 143.953 85.0768 144.067L85.2582 144.229C85.3848 144.339 85.4565 144.489 85.4608 144.651L85.6759 153.381C85.7308 155.713 84.5367 157.866 82.4735 159.141C81.2668 159.902 79.9758 160.624 79.018 161.141Z" fill="black"/>
<path d="M93.4563 148.111C93.4563 148.111 89.3552 148.245 87.7266 146.158L93.4563 148.111Z" fill="white"/>
<path d="M93.2874 148.706C92.4141 148.706 88.8277 148.576 87.216 146.509C87.0092 146.245 87.0725 145.874 87.3552 145.681C87.6379 145.487 88.0345 145.547 88.2412 145.811C89.6505 147.614 93.3971 147.519 93.4393 147.519C93.7684 147.503 94.0806 147.764 94.0933 148.091C94.106 148.418 93.8317 148.691 93.4815 148.702C93.4562 148.706 93.3929 148.706 93.2874 148.706Z" fill="black"/>
<path d="M248.513 289.476H152.635C149.103 289.476 146.243 292.151 146.243 295.453C146.243 298.755 149.103 301.429 152.635 301.429H248.513C252.044 301.429 254.905 298.755 254.905 295.453C254.905 292.151 252.04 289.476 248.513 289.476Z" fill="#CEDDF8" stroke="black" stroke-width="2"/>
<path d="M185.068 270.438H132.113C128.834 270.438 126.176 272.924 126.176 275.989C126.176 279.054 128.834 281.539 132.113 281.539H185.068C188.347 281.539 191.005 279.054 191.005 275.989C191.005 272.924 188.347 270.438 185.068 270.438Z" fill="#CEDDF8" stroke="black" stroke-width="2"/>
<path d="M209.022 277.287C209.775 274.304 207.8 271.314 204.609 270.61C201.418 269.905 198.221 271.753 197.467 274.736C196.714 277.719 198.69 280.709 201.88 281.413C205.071 282.118 208.269 280.27 209.022 277.287Z" fill="#CEDDF8" stroke="black" stroke-width="2"/>
<path d="M314.253 198.037H254.513C250.981 198.037 248.121 200.712 248.121 204.014C248.121 207.316 250.981 209.99 254.513 209.99H314.249C317.78 209.99 320.641 207.316 320.641 204.014C320.645 200.712 317.78 198.037 314.253 198.037Z" fill="#CEDDF8" stroke="black" stroke-width="2"/>
<path d="M328.674 178.999H275.719C272.44 178.999 269.782 181.484 269.782 184.549C269.782 187.614 272.44 190.1 275.719 190.1H328.674C331.953 190.1 334.611 187.614 334.611 184.549C334.607 181.484 331.953 178.999 328.674 178.999Z" fill="#CEDDF8" stroke="black" stroke-width="2"/>
<path d="M352.641 185.85C353.394 182.866 351.418 179.877 348.227 179.173C345.037 178.468 341.839 180.315 341.086 183.299C340.332 186.282 342.308 189.271 345.499 189.976C348.69 190.68 351.887 188.833 352.641 185.85Z" fill="#CEDDF8" stroke="black" stroke-width="2"/>
<path d="M93.899 46.4353H34.1631C30.6316 46.4353 27.771 49.1099 27.771 52.4118C27.771 55.7137 30.6316 58.3883 34.1631 58.3883H93.899C97.4305 58.3883 100.291 55.7137 100.291 52.4118C100.295 49.1099 97.4305 46.4353 93.899 46.4353Z" fill="#CEDDF8" stroke="black" stroke-width="2"/>
<path d="M108.32 27.3972H55.3691C52.0907 27.3972 49.4326 29.8825 49.4326 32.9477C49.4326 36.0129 52.0907 38.4981 55.3691 38.4981H108.325C111.603 38.4981 114.261 36.0129 114.261 32.9477C114.261 29.8825 111.599 27.3972 108.32 27.3972Z" fill="#CEDDF8" stroke="black" stroke-width="2"/>
<path d="M132.286 34.2308C133.039 31.2475 131.063 28.2581 127.872 27.5536C124.682 26.8492 121.484 28.6966 120.731 31.6798C119.977 34.6631 121.953 37.6526 125.144 38.357C128.335 39.0615 131.532 37.2141 132.286 34.2308Z" fill="#CEDDF8" stroke="black" stroke-width="2"/>
<path d="M343.551 221.545H277.82C277.356 221.545 276.976 221.19 276.976 220.756C276.976 220.322 277.356 219.967 277.82 219.967H343.551C344.015 219.967 344.395 220.322 344.395 220.756C344.395 221.19 344.015 221.545 343.551 221.545Z" fill="black"/>
<path d="M296.828 232.776H265.989C265.525 232.776 265.146 232.421 265.146 231.987C265.146 231.553 265.525 231.198 265.989 231.198H296.828C297.292 231.198 297.672 231.553 297.672 231.987C297.672 232.421 297.296 232.776 296.828 232.776Z" fill="black"/>
<path d="M176.212 312.483H135.126C134.661 312.483 134.282 312.127 134.282 311.694C134.282 311.26 134.661 310.905 135.126 310.905H176.212C176.677 310.905 177.056 311.26 177.056 311.694C177.056 312.127 176.677 312.483 176.212 312.483Z" fill="black"/>
<path d="M62.2891 71.0081H25.5016C25.0374 71.0081 24.6577 70.6531 24.6577 70.2192C24.6577 69.7852 25.0374 69.4302 25.5016 69.4302H62.2848C62.7489 69.4302 63.1287 69.7852 63.1287 70.2192C63.1329 70.657 62.7532 71.0081 62.2891 71.0081Z" fill="black"/>
<path d="M172.327 16.3043H152.707C152.243 16.3043 151.863 15.9492 151.863 15.5153C151.863 15.0814 152.243 14.7263 152.707 14.7263H172.327C172.791 14.7263 173.17 15.0814 173.17 15.5153C173.17 15.9492 172.791 16.3043 172.327 16.3043Z" fill="black"/>
<path d="M209.523 321.678H149.631C149.167 321.678 148.788 321.323 148.788 320.889C148.788 320.455 149.167 320.1 149.631 320.1H209.523C209.988 320.1 210.367 320.455 210.367 320.889C210.367 321.323 209.988 321.678 209.523 321.678Z" fill="black"/>
<path d="M61.8194 0.552734C90.824 0.552734 114.339 22.5387 114.339 49.6574V98.762H62.6391V98.7509C62.3672 98.7546 62.0913 98.762 61.8194 98.762C32.8148 98.762 9.2998 76.776 9.2998 49.6574C9.2998 22.5387 32.8148 0.552734 61.8194 0.552734Z" fill="#CEDDF8"/>
<path d="M61.8192 99.3146C62.0281 99.3146 62.2369 99.311 62.4419 99.3073H62.5404C62.5719 99.311 62.6074 99.3146 62.6389 99.3146H114.339C114.666 99.3146 114.93 99.0678 114.93 98.762V49.6573C114.93 22.2771 91.1036 0 61.8192 0C32.5348 0 8.7085 22.2771 8.7085 49.6573C8.7085 77.0376 32.5348 99.3146 61.8192 99.3146ZM62.6389 98.1982C62.635 98.1982 62.635 98.1982 62.631 98.1982L62.4222 98.2019C62.2212 98.2056 62.0202 98.2093 61.8192 98.2093C33.1851 98.2093 9.89075 76.4296 9.89075 49.6573C9.89075 22.885 33.1851 1.10538 61.8192 1.10538C90.4534 1.10538 113.748 22.885 113.748 49.6573V98.2093H62.7453C62.7098 98.2019 62.6744 98.1982 62.6389 98.1982Z" fill="black"/>
<path d="M54.6902 71.4222V41.0427H68.9482V71.4222C68.9482 73.4745 70.7255 75.1363 72.9205 75.1363V78.4156H50.7139V75.1363C52.9089 75.1363 54.6902 73.4709 54.6902 71.4222Z" fill="white"/>
<path d="M61.8191 35.1437C66.2569 35.1437 69.8544 31.7801 69.8544 27.6308C69.8544 23.4816 66.2569 20.1179 61.8191 20.1179C57.3813 20.1179 53.7837 23.4816 53.7837 27.6308C53.7837 31.7801 57.3813 35.1437 61.8191 35.1437Z" fill="white"/>
</svg>
