<svg width="559" height="544" viewBox="0 0 559 544" fill="none" xmlns="http://www.w3.org/2000/svg">
<path d="M386.997 528.053C348.87 528.053 303.546 522.557 256.865 512.154C252.656 511.216 248.393 510.224 244.192 509.218C235.782 507.192 230.471 498.692 232.349 490.266L274.184 303.098C275.109 298.957 277.707 295.302 281.305 293.058C284.903 290.813 289.338 290.101 293.464 291.086C297.494 292.051 301.586 293.003 305.643 293.906C361.104 306.267 414.618 311.681 456.337 309.148C476.556 307.923 492.874 304.891 504.841 300.148C517 295.33 524.039 288.965 525.766 281.251C525.889 280.697 526.437 280.348 526.993 280.471C527.548 280.594 527.897 281.142 527.774 281.696C524.093 298.156 498.769 308.628 456.467 311.202C414.57 313.748 360.85 308.313 305.204 295.912C301.14 295.008 297.028 294.057 292.991 293.085C289.4 292.223 285.541 292.845 282.402 294.796C279.27 296.747 277.008 299.936 276.199 303.536L234.364 490.704C232.726 498.041 237.352 505.447 244.679 507.213C248.859 508.219 253.116 509.204 257.317 510.142C312.778 522.503 366.299 527.916 408.011 525.384C428.23 524.159 444.549 521.127 456.515 516.384C468.674 511.565 475.713 505.2 477.44 497.487C477.563 496.933 478.111 496.584 478.667 496.707C479.222 496.83 479.571 497.377 479.448 497.932C475.767 514.392 450.443 524.864 408.141 527.437C401.383 527.855 394.324 528.053 386.997 528.053Z" fill="black"/>
<path d="M415.009 199.128C406.552 196.082 397.333 201.133 395.38 209.893L353.599 396.836C351.954 404.187 356.067 411.606 363.181 414.117C436.105 439.859 483.986 472.889 478.441 497.719L526.774 281.484C532.229 257.05 485.959 224.684 415.009 199.128Z" fill="white"/>
<path d="M478.44 498.746C478.365 498.746 478.29 498.739 478.214 498.719C477.659 498.596 477.309 498.048 477.433 497.494C480.024 485.913 470.408 471.944 449.634 457.092C429.079 442.398 399.067 427.874 362.824 415.083C355.23 412.4 350.83 404.46 352.584 396.61L394.365 209.668C395.359 205.212 398.231 201.386 402.247 199.189C406.263 196.985 411.04 196.609 415.351 198.163C450.799 210.927 480.12 225.361 500.146 239.892C520.954 254.997 530.508 269.452 527.767 281.696L479.441 497.938C479.331 498.418 478.913 498.746 478.44 498.746ZM409.937 199.271C407.62 199.271 405.31 199.846 403.241 200.989C399.745 202.906 397.244 206.232 396.38 210.119L354.593 397.062C353.064 403.899 356.902 410.819 363.516 413.153C399.93 426.006 430.128 440.625 450.833 455.429C467.344 467.235 477.015 478.645 479.345 488.945L525.766 281.251C530.933 258.118 487.323 226.265 414.659 200.093C413.124 199.545 411.527 199.271 409.937 199.271Z" fill="#FDAD00"/>
<path d="M400.116 277.603C398.718 277.09 397.169 277.199 395.86 277.911C394.551 278.623 393.612 279.862 393.283 281.313C387.135 308.813 378.992 345.237 368.225 393.427C367.663 395.946 369.048 398.492 371.474 399.382C414.228 415.069 447.948 433.131 466.878 450.426C468.235 451.665 470.155 452.089 471.909 451.535C473.664 450.98 474.986 449.536 475.391 447.743C485.946 400.532 493.978 364.586 500.085 337.243C500.462 335.567 499.968 333.801 498.783 332.562C481.155 314.131 445.885 294.515 400.116 277.603Z" fill="#CEDDF8" stroke="black" stroke-width="2" stroke-linejoin="bevel"/>
<path d="M413.721 216.724C412.322 216.211 410.774 216.32 409.464 217.032C408.155 217.744 407.216 218.983 406.887 220.434C405.147 228.236 402.823 238.632 399.732 252.451C399.17 254.969 400.561 257.509 402.988 258.398C445.803 274.14 479.517 292.257 498.337 309.586C499.694 310.832 501.614 311.263 503.368 310.715C505.13 310.168 506.459 308.724 506.864 306.924C509.756 293.988 511.983 284.023 513.697 276.358C514.074 274.674 513.58 272.922 512.388 271.676C494.767 253.252 459.49 233.636 413.721 216.724Z" fill="#CEDDF8" stroke="black" stroke-width="2" stroke-linejoin="bevel"/>
<path d="M227.093 367.269C231.267 368.2 235.399 369.158 239.498 370.144C247.729 372.122 255.981 366.968 257.825 358.721L329.769 38.6999C331.572 30.6237 326.555 22.616 318.502 20.6722C314.252 19.6456 309.962 18.6532 305.637 17.6882C188.842 -8.34031 88.0772 -2.22844 80.5723 31.3492L2.021 380.93C9.5259 347.353 110.297 341.241 227.093 367.269Z" fill="white"/>
<path d="M2.02788 381.957C1.95249 381.957 1.87709 381.95 1.8017 381.929C1.24655 381.806 0.897003 381.259 1.02037 380.704C1.02037 380.691 1.02723 380.677 1.02723 380.663L79.5716 31.1233C83.3069 14.3961 109.057 3.7465 152.064 1.13886C194.667 -1.44825 249.292 4.07502 305.87 16.682C310.16 17.6402 314.492 18.6463 318.755 19.6729C327.295 21.733 332.696 30.3704 330.783 38.9188L258.832 358.94C257.88 363.204 255.31 366.831 251.595 369.144C247.887 371.451 243.507 372.163 239.258 371.143C235.166 370.157 230.999 369.192 226.866 368.275C170.467 355.709 116.054 350.2 73.6362 352.78C53.0749 354.026 36.4819 357.106 24.3095 361.931C11.9453 366.838 4.7831 373.306 3.02853 381.163C2.91887 381.635 2.49394 381.957 2.02788 381.957ZM173.558 2.56929C166.149 2.56929 159.014 2.77462 152.181 3.19212C131.619 4.43776 115.026 7.51765 102.854 12.3428C90.4897 17.2501 83.3275 23.7179 81.5729 31.575L4.96815 372.505C14.2824 360.507 38.0171 352.876 73.506 350.72C116.109 348.133 170.734 353.656 227.312 366.263C231.452 367.187 235.632 368.152 239.738 369.144C243.446 370.034 247.27 369.418 250.505 367.399C253.747 365.38 255.995 362.218 256.824 358.488L328.768 38.474C330.441 31.0069 325.725 23.4715 318.262 21.6715C314.012 20.6448 309.687 19.6456 305.411 18.6942C258.099 8.14047 212.172 2.56929 173.558 2.56929Z" fill="#FDAD00"/>
<path d="M274.698 113.76C280.675 115.095 285.945 116.354 290.277 117.429C292.511 117.983 294.876 117.613 296.836 116.402C298.796 115.191 300.187 113.247 300.688 111.002L301.757 106.232L308.665 76.7398L309.378 73.5368C310.564 68.2325 307.288 62.9625 302.01 61.6621C297.878 60.6423 292.943 59.4719 287.419 58.24C184.592 35.3188 96.103 43.3881 90.243 64.3998L79.7842 111.666C93.8618 100.79 171.871 90.8457 274.698 113.76Z" fill="#CEDDF8" stroke="black" stroke-width="2" stroke-linejoin="bevel"/>
<path d="M238.606 264.408C242.266 265.222 248.681 266.755 254.198 268.111C256.433 268.658 258.79 268.289 260.75 267.077C262.704 265.866 264.095 263.922 264.595 261.677L265.672 256.872L291.359 145.887L292.072 142.684C293.258 137.38 289.982 132.11 284.704 130.809C280.572 129.789 275.637 128.619 270.113 127.387C167.286 104.466 78.7969 112.535 72.9369 133.547L43.6919 262.32C57.7695 251.438 135.779 241.494 238.606 264.408Z" fill="#CEDDF8" stroke="black" stroke-width="2" stroke-linejoin="bevel"/>
<path d="M219.369 346.833C221.692 347.353 228.834 349.057 234.968 350.556C237.202 351.103 239.56 350.727 241.513 349.515C243.466 348.304 244.851 346.36 245.351 344.122L246.427 339.311L256.276 298.027L256.989 294.823C258.175 289.519 254.899 284.249 249.621 282.949C245.488 281.929 240.554 280.759 235.029 279.527C132.202 256.606 43.7128 264.675 37.8528 285.687L24.4536 344.752C38.5313 333.863 116.541 323.918 219.369 346.833Z" fill="#CEDDF8" stroke="black" stroke-width="2" stroke-linejoin="bevel"/>
<path d="M310.806 45.7075C313.502 44.5922 314.783 41.5053 313.666 38.8128C312.549 36.1202 309.458 34.8416 306.762 35.9569C304.065 37.0722 302.785 40.1591 303.902 42.8517C305.019 45.5442 308.11 46.8228 310.806 45.7075Z" fill="#FDAD00"/>
<path d="M290.895 42.2039C293.813 42.2039 296.179 39.8414 296.179 36.927C296.179 34.0127 293.813 31.6501 290.895 31.6501C287.976 31.6501 285.61 34.0127 285.61 36.927C285.61 39.8414 287.976 42.2039 290.895 42.2039Z" fill="#CEDDF8" stroke="black" stroke-width="2" stroke-linejoin="bevel"/>
<path d="M272.485 38.4396C275.403 38.4396 277.769 36.077 277.769 33.1627C277.769 30.2484 275.403 27.8858 272.485 27.8858C269.567 27.8858 267.201 30.2484 267.201 33.1627C267.201 36.077 269.567 38.4396 272.485 38.4396Z" fill="#CEDDF8" stroke="black" stroke-width="2" stroke-linejoin="bevel"/>
<path d="M487.891 300.566C488.44 300.107 488.7 299.389 488.563 298.69C488.412 297.883 487.61 297.397 487.247 297.192C482.717 294.563 475.246 296.446 475.246 296.446C473.19 296.966 469.962 297.773 466.665 300.313C462.752 303.324 461.114 306.931 459.174 311.338C457.543 315.048 455.528 320.742 454.733 328.175C458.489 325.15 485.671 302.421 487.891 300.566Z" fill="white"/>
<path d="M454.732 329.209C454.56 329.209 454.396 329.168 454.238 329.085C453.875 328.887 453.662 328.49 453.71 328.072C454.355 322.056 455.876 316.287 458.234 310.928C460.091 306.712 461.839 302.735 466.04 299.498C469.508 296.829 472.942 295.966 474.998 295.446C475.32 295.364 482.928 293.496 487.767 296.302C488.151 296.528 489.329 297.212 489.576 298.499C489.782 299.566 489.384 300.661 488.555 301.353C488.109 301.722 486.656 302.934 484.593 304.658C476.088 311.763 458.391 326.546 455.383 328.969C455.191 329.126 454.965 329.209 454.732 329.209ZM480.913 296.815C478.034 296.815 475.54 297.424 475.498 297.438C473.477 297.944 470.42 298.718 467.295 301.127C463.511 304.042 461.935 307.615 460.119 311.756C458.179 316.164 456.829 320.859 456.089 325.745C461.764 321.057 475.937 309.217 483.271 303.091C485.334 301.366 486.787 300.155 487.239 299.779C487.499 299.56 487.623 299.217 487.561 298.882C487.493 298.519 486.924 298.184 486.739 298.081C485.059 297.109 482.894 296.815 480.913 296.815Z" fill="black"/>
<path d="M327.616 277.069C340.542 295.631 354.64 306.15 363.379 311.68C368.924 315.192 414.892 344.3 443.136 325.348C450.127 320.66 454.061 314.343 456.145 310.284C459.51 313.877 462.882 317.471 466.247 321.064C465.576 325.526 459.065 364.86 427.709 378.843C411.684 385.988 395.311 384.551 384.893 382.217C370.274 378.945 349.349 373.176 341.056 365.106C309.056 333.979 327.616 277.069 327.616 277.069Z" fill="#FDAD00"/>
<path d="M352.18 399.492C339.459 333.144 361.268 306.588 339.233 285.152C319.069 265.53 282.189 269.657 266.227 271.437C248.119 273.462 233.123 275.139 222.417 285.994C219.573 288.876 217.51 291.942 216.023 295.241V295.227C194.824 330.57 208.559 368.891 217.325 386.72C215.338 456.298 186.716 475.763 203.535 502.435C221.739 531.311 270.367 532.406 296.15 528.163C305.197 526.677 355.963 517.205 369.273 481.704C377.998 458.427 361.522 448.236 352.18 399.492Z" fill="#FDAD00"/>
<path d="M320.125 390.752C320.125 390.752 363.928 385.783 382.961 362.013L414.694 344.136C414.694 344.136 411.514 355.703 402.645 358.721C402.645 358.721 406.044 373.593 394.084 380.417C394.084 380.417 385.373 384.462 380.994 383.517C380.994 383.517 358.13 422.31 320.66 426.485C320.66 426.485 314.526 409.464 320.125 390.752Z" fill="white"/>
<path d="M320.66 427.512C320.228 427.512 319.844 427.245 319.693 426.834C319.44 426.129 313.511 409.279 319.138 390.464C319.255 390.067 319.598 389.786 320.009 389.739C320.441 389.691 363.612 384.537 382.159 361.376C382.241 361.274 382.344 361.185 382.454 361.123L414.187 343.246C414.55 343.041 414.995 343.075 415.324 343.328C415.653 343.581 415.79 344.013 415.681 344.409C415.55 344.889 412.446 355.846 403.803 359.385C404.317 362.8 405.338 375.181 394.592 381.313C394.564 381.327 394.544 381.341 394.516 381.354C394.167 381.519 386.299 385.139 381.508 384.64C378.389 389.595 355.744 423.611 320.77 427.512C320.735 427.512 320.701 427.512 320.66 427.512ZM320.92 391.689C316.445 407.383 320.317 421.913 321.38 425.363C357.424 420.811 379.883 383.373 380.11 382.997C380.336 382.614 380.781 382.422 381.213 382.511C384.503 383.223 391.247 380.595 393.618 379.5C404.742 373.114 401.678 359.083 401.651 358.947C401.534 358.433 401.822 357.913 402.323 357.749C408.1 355.785 411.349 349.83 412.795 346.387L383.646 362.813C365.573 385.167 326.76 390.936 320.92 391.689Z" fill="black"/>
<path d="M302.477 428.374C276.062 428.374 257.413 420.524 245.919 413.392C230.841 404.036 224.227 393.763 224.172 393.667C223.973 393.318 223.987 392.859 224.227 392.531C224.563 392.072 225.2 391.97 225.66 392.305C225.797 392.408 225.906 392.531 225.975 392.675C226.66 393.749 252.053 431.358 314.793 425.759C315.362 425.712 315.855 426.122 315.91 426.69C315.958 427.258 315.54 427.751 314.978 427.806C310.633 428.196 306.466 428.374 302.477 428.374Z" fill="black"/>
<path d="M312.634 389.978C312.586 389.978 312.538 389.978 312.497 389.971C277.378 385.201 262.499 362.273 256.2 343.882C249.408 324.048 250.909 305.076 250.923 304.884C250.971 304.316 251.485 303.905 252.033 303.946C252.602 303.994 253.02 304.487 252.972 305.055C252.958 305.24 251.498 323.842 258.167 343.273C267.063 369.192 285.431 384.215 312.771 387.932C313.333 388.007 313.731 388.527 313.648 389.088C313.58 389.602 313.141 389.978 312.634 389.978Z" fill="black"/>
<path d="M341.529 357.023C341.461 357.023 341.392 357.016 341.33 357.003C340.775 356.893 340.412 356.353 340.522 355.798C347.841 319.113 331.968 297.321 331.804 297.109C331.461 296.658 331.557 296.014 332.009 295.672C332.462 295.33 333.106 295.426 333.449 295.877C333.613 296.103 350.042 318.566 342.53 356.202C342.441 356.688 342.009 357.023 341.529 357.023Z" fill="black"/>
<path d="M309.303 184.604C318.713 191.339 314.32 199.223 327.089 220.105C334.367 232.007 338.795 234.355 339.933 238.331C340.214 239.324 340.234 240.028 340.214 240.98C340.042 250.007 327.863 258.48 317.452 261.41C298.145 266.844 288.42 252.225 275.384 259.199C265.946 264.25 266.919 274.119 258.757 275.495C250.532 276.884 241.766 268.172 237.681 261.225C228.833 246.168 235.385 228.195 238.504 219.927C243.61 206.389 251.341 198.477 253.774 196.116C256.44 193.522 261.402 188.779 269.003 185.275C270.579 184.556 294.403 173.948 309.303 184.604Z" fill="black"/>
<path d="M264.15 269.486C265.768 268.692 267.612 267.666 269.126 265.612C269.853 264.627 270.394 263.409 270.805 261.725L278.605 229.249C278.605 229.249 271.861 227.552 271.929 218.901C271.984 212.187 279.14 214.171 279.14 214.171L280.956 202.023C285.575 205.52 282.587 212.878 288.139 211.235L312.668 203.974C312.668 203.974 318.645 203.782 315.095 221.666C314.073 227.819 317.966 230.769 318.905 232.575C319.57 233.848 318.926 235.416 317.555 235.861L315.657 236.483C308.152 251.63 304.026 253.656 298.611 251.445L297.007 257.981C296.569 260.644 296.411 264.387 298.632 266.865C300.373 268.809 302.634 268.918 307.206 270.273C309.68 271.006 313.278 272.238 317.541 274.325C314.21 276.207 310.461 277.925 306.281 279.301C282.779 287.028 260.84 278.685 251.581 274.441C254.822 273.415 259.469 271.772 264.15 269.486Z" fill="white"/>
<path d="M286.103 283.517C272.471 283.517 260.202 279.513 251.162 275.372C250.779 275.194 250.539 274.797 250.566 274.38C250.594 273.955 250.875 273.593 251.279 273.463C255.837 272.012 260.017 270.362 263.705 268.555C265.192 267.83 266.899 266.892 268.304 264.989C268.962 264.093 269.441 262.977 269.811 261.465L277.399 229.879C275.37 228.989 270.853 226.176 270.908 218.88C270.929 216.676 271.635 215.034 273.005 214C274.691 212.727 276.946 212.775 278.29 212.953L279.948 201.859C280.003 201.503 280.243 201.195 280.579 201.058C280.915 200.921 281.298 200.969 281.586 201.188C283.93 202.96 284.54 205.52 285.034 207.58C285.328 208.812 285.603 209.983 286.158 210.297C286.576 210.537 287.309 210.393 287.857 210.229L312.387 202.967C312.469 202.94 312.559 202.926 312.648 202.926C312.785 202.919 314.114 202.919 315.307 204.329C317.61 207.04 317.877 212.932 316.109 221.85C315.389 226.183 317.342 228.708 318.768 230.556C319.207 231.124 319.577 231.61 319.83 232.089C320.283 232.965 320.331 233.992 319.961 234.902C319.584 235.819 318.837 236.518 317.891 236.826L316.397 237.312C309.831 250.466 305.362 254.607 299.351 252.779L298.029 258.173C297.439 261.8 297.905 264.49 299.413 266.167C300.523 267.405 301.935 267.775 304.512 268.446C305.389 268.672 306.376 268.932 307.514 269.274C311.037 270.321 314.574 271.704 318.007 273.394C318.35 273.565 318.569 273.907 318.583 274.284C318.597 274.667 318.391 275.023 318.062 275.208C314.402 277.268 310.55 278.972 306.623 280.266C299.598 282.586 292.689 283.517 286.103 283.517ZM254.438 274.578C267.495 280.136 286.329 284.783 305.972 278.329C309.152 277.282 312.278 275.961 315.279 274.393C312.524 273.141 309.721 272.087 306.918 271.259C305.814 270.93 304.841 270.677 303.978 270.451C301.216 269.726 299.392 269.253 297.871 267.549C295.924 265.38 295.294 262.101 296 257.81C296.007 257.783 296.007 257.755 296.013 257.735L297.617 251.198C297.686 250.911 297.885 250.665 298.152 250.528C298.419 250.391 298.728 250.377 299.009 250.493C303.052 252.143 306.774 252.122 314.745 236.025C314.868 235.778 315.081 235.594 315.348 235.505L317.247 234.882C317.61 234.759 317.904 234.492 318.048 234.136C318.192 233.78 318.179 233.39 318 233.048C317.836 232.733 317.514 232.308 317.137 231.822C315.67 229.92 313.216 226.737 314.087 221.495C316.205 210.824 314.827 207.067 313.82 205.773C313.381 205.212 312.956 205.055 312.771 205.007L288.44 212.207C287.062 212.618 285.98 212.577 285.123 212.084C283.807 211.324 283.43 209.736 283.026 208.066C282.724 206.814 282.402 205.445 281.662 204.281L280.161 214.315C280.12 214.609 279.948 214.863 279.702 215.027C279.455 215.184 279.146 215.232 278.865 215.157C278.838 215.15 275.925 214.377 274.232 215.656C273.403 216.286 272.971 217.381 272.957 218.907C272.896 226.662 278.797 228.243 278.852 228.257C279.4 228.394 279.729 228.948 279.599 229.489L271.799 261.964C271.36 263.751 270.771 265.106 269.949 266.221C268.352 268.384 266.433 269.513 264.603 270.41C261.518 271.909 258.112 273.312 254.438 274.578Z" fill="black"/>
<path d="M298.618 252.471C298.515 252.471 298.412 252.458 298.31 252.424C287.063 248.865 282.943 241.911 282.772 241.616C282.491 241.124 282.656 240.494 283.149 240.213C283.643 239.933 284.266 240.097 284.554 240.59C284.609 240.686 288.516 247.167 298.933 250.466C299.475 250.637 299.776 251.212 299.605 251.753C299.454 252.191 299.05 252.471 298.618 252.471Z" fill="black"/>
<path d="M285.472 184.81C284.924 184.139 294.293 163.579 278.159 158.706C262.033 153.833 249.778 183.489 264.562 191.811C279.352 200.134 285.472 184.81 285.472 184.81Z" fill="black"/>
<path d="M303.868 231.056C300.222 231.056 297.193 228.154 297.069 224.485C296.946 220.742 299.893 217.593 303.642 217.47C305.451 217.409 307.185 218.059 308.515 219.304C309.838 220.543 310.605 222.227 310.66 224.041C310.722 225.854 310.071 227.586 308.83 228.907C307.59 230.235 305.904 230.994 304.087 231.056C304.019 231.056 303.943 231.056 303.868 231.056ZM303.875 219.523C303.82 219.523 303.765 219.523 303.717 219.523C301.099 219.612 299.043 221.802 299.132 224.417C299.214 227.031 301.408 229.092 304.033 228.996C305.301 228.955 306.473 228.421 307.343 227.497C308.207 226.573 308.666 225.368 308.625 224.102C308.584 222.836 308.049 221.666 307.124 220.796C306.233 219.975 305.088 219.523 303.875 219.523Z" fill="black"/>
<path d="M316.829 229.297C316.548 229.297 316.26 229.18 316.061 228.955C315.684 228.53 315.718 227.88 316.143 227.504C317.199 226.566 317.781 225.218 317.733 223.808C317.686 222.391 317.014 221.084 315.89 220.215C315.437 219.866 315.355 219.222 315.705 218.777C316.054 218.326 316.699 218.243 317.144 218.592C318.755 219.838 319.714 221.713 319.783 223.746C319.851 225.765 319.022 227.702 317.5 229.044C317.315 229.215 317.076 229.297 316.829 229.297Z" fill="white"/>
<path d="M298.001 224.143C297.844 224.143 297.686 224.109 297.542 224.034L278.029 214.26C277.522 214.007 277.316 213.391 277.57 212.884C277.824 212.378 278.44 212.173 278.948 212.426L298.46 222.199C298.968 222.453 299.173 223.069 298.92 223.575C298.741 223.938 298.378 224.143 298.001 224.143Z" fill="black"/>
<path d="M309.79 225.149C309.605 225.149 309.42 225.101 309.248 224.992C308.769 224.691 308.618 224.068 308.912 223.582C309.043 223.377 310.222 221.535 312.223 221.132C313.361 220.906 314.478 221.18 315.561 221.953C316.02 222.281 316.129 222.925 315.8 223.383C315.472 223.842 314.827 223.951 314.368 223.623C313.765 223.192 313.203 223.034 312.648 223.144C311.688 223.335 310.893 224.301 310.667 224.663C310.468 224.978 310.132 225.149 309.79 225.149Z" fill="black"/>
<path d="M439.47 338.236H439.464C436.784 338.216 434.008 338.161 431.218 338.072C430.65 338.051 430.204 337.579 430.225 337.011C430.245 336.443 430.698 335.998 431.287 336.019C434.063 336.108 436.818 336.162 439.484 336.183C440.053 336.19 440.512 336.648 440.505 337.216C440.492 337.784 440.032 338.236 439.47 338.236ZM447.695 338.195C447.14 338.195 446.681 337.75 446.667 337.189C446.653 336.621 447.105 336.155 447.674 336.142C450.471 336.087 453.226 335.991 455.858 335.854C456.434 335.82 456.906 336.258 456.941 336.826C456.968 337.394 456.536 337.873 455.967 337.908C453.308 338.044 450.532 338.14 447.715 338.195C447.709 338.195 447.702 338.195 447.695 338.195ZM423.028 337.723C423.008 337.723 422.994 337.723 422.973 337.723C420.287 337.579 417.518 337.408 414.742 337.209C414.173 337.168 413.748 336.676 413.789 336.114C413.83 335.546 414.317 335.122 414.886 335.163C417.648 335.362 420.403 335.533 423.076 335.676C423.645 335.704 424.077 336.19 424.049 336.758C424.029 337.298 423.57 337.723 423.028 337.723ZM464.117 337.326C463.589 337.326 463.143 336.922 463.095 336.395C463.047 335.834 463.459 335.334 464.027 335.279C466.831 335.026 469.565 334.718 472.149 334.355C472.718 334.28 473.232 334.67 473.307 335.231C473.383 335.793 472.992 336.313 472.43 336.388C469.819 336.751 467.05 337.066 464.213 337.319C464.178 337.326 464.151 337.326 464.117 337.326ZM406.62 336.552C406.593 336.552 406.559 336.552 406.531 336.546C403.844 336.306 401.089 336.039 398.327 335.752C397.765 335.69 397.354 335.19 397.409 334.622C397.47 334.061 397.991 333.65 398.54 333.705C401.288 333.993 404.036 334.26 406.709 334.499C407.278 334.547 407.689 335.047 407.641 335.615C407.6 336.155 407.148 336.552 406.62 336.552ZM480.394 335.026C479.915 335.026 479.49 334.691 479.387 334.205C479.277 333.65 479.634 333.11 480.189 332.993C482.992 332.425 485.651 331.775 488.091 331.057C488.633 330.899 489.208 331.207 489.366 331.755C489.524 332.295 489.215 332.87 488.667 333.028C486.172 333.76 483.458 334.424 480.593 335.006C480.531 335.019 480.463 335.026 480.394 335.026ZM390.26 334.848C390.219 334.848 390.178 334.848 390.137 334.841C387.443 334.52 384.695 334.171 381.96 333.808C381.398 333.733 381.001 333.219 381.076 332.651C381.152 332.09 381.659 331.693 382.234 331.768C384.955 332.131 387.697 332.48 390.377 332.802C390.939 332.87 391.343 333.384 391.275 333.945C391.22 334.465 390.774 334.848 390.26 334.848ZM373.955 332.672C373.907 332.672 373.852 332.665 373.804 332.658C371.118 332.261 368.376 331.844 365.662 331.412C365.1 331.323 364.716 330.796 364.805 330.235C364.894 329.674 365.422 329.291 365.984 329.38C368.691 329.811 371.426 330.228 374.099 330.618C374.661 330.701 375.052 331.221 374.969 331.782C374.894 332.302 374.455 332.672 373.955 332.672ZM357.705 330.091C357.65 330.091 357.588 330.085 357.533 330.078C354.86 329.619 352.133 329.14 349.425 328.647C348.87 328.545 348.5 328.011 348.596 327.45C348.699 326.888 349.234 326.526 349.796 326.621C352.496 327.114 355.217 327.593 357.883 328.052C358.445 328.148 358.822 328.682 358.726 329.236C358.637 329.736 358.198 330.091 357.705 330.091ZM341.523 327.142C341.461 327.142 341.393 327.135 341.324 327.121C338.651 326.601 335.958 326.067 333.244 325.513C332.689 325.396 332.325 324.856 332.442 324.301C332.558 323.747 333.107 323.391 333.655 323.501C336.355 324.055 339.042 324.589 341.715 325.102C342.27 325.212 342.633 325.745 342.531 326.307C342.435 326.799 342.01 327.142 341.523 327.142ZM325.403 323.856C325.334 323.856 325.259 323.85 325.184 323.836C322.518 323.261 319.838 322.672 317.137 322.07C316.582 321.947 316.233 321.399 316.363 320.845C316.486 320.291 317.035 319.942 317.59 320.072C320.276 320.674 322.956 321.262 325.615 321.831C326.171 321.947 326.527 322.494 326.404 323.049C326.308 323.528 325.883 323.856 325.403 323.856ZM309.358 320.25C309.283 320.25 309.201 320.243 309.125 320.222C306.466 319.599 303.8 318.956 301.12 318.306C300.572 318.169 300.229 317.615 300.366 317.067C300.503 316.519 301.058 316.177 301.607 316.314C304.28 316.971 306.946 317.608 309.598 318.23C310.153 318.361 310.496 318.915 310.366 319.462C310.242 319.928 309.824 320.25 309.358 320.25ZM293.375 316.341C293.293 316.341 293.204 316.335 293.122 316.307C290.476 315.637 287.817 314.945 285.151 314.24C284.602 314.097 284.273 313.535 284.417 312.988C284.561 312.44 285.13 312.112 285.672 312.256C288.331 312.96 290.983 313.645 293.622 314.316C294.17 314.452 294.506 315.014 294.362 315.561C294.253 316.034 293.834 316.341 293.375 316.341ZM277.468 312.146C277.379 312.146 277.289 312.132 277.193 312.112C274.555 311.393 271.909 310.654 269.264 309.908C268.715 309.751 268.4 309.189 268.551 308.642C268.708 308.094 269.277 307.779 269.819 307.937C272.464 308.683 275.103 309.415 277.735 310.134C278.283 310.284 278.605 310.846 278.455 311.393C278.338 311.852 277.92 312.146 277.468 312.146ZM261.642 307.677C261.546 307.677 261.45 307.663 261.354 307.636C258.709 306.862 256.077 306.082 253.459 305.295C252.917 305.131 252.609 304.556 252.773 304.015C252.938 303.474 253.514 303.166 254.055 303.331C256.666 304.118 259.291 304.898 261.93 305.671C262.472 305.829 262.787 306.404 262.629 306.944C262.499 307.382 262.088 307.677 261.642 307.677ZM245.892 302.927C245.789 302.927 245.687 302.913 245.584 302.879C242.952 302.058 240.334 301.23 237.729 300.395C237.188 300.223 236.893 299.642 237.065 299.101C237.236 298.56 237.819 298.266 238.36 298.437C240.958 299.272 243.569 300.093 246.194 300.915C246.735 301.086 247.037 301.661 246.872 302.201C246.735 302.639 246.331 302.927 245.892 302.927ZM230.231 297.89C230.122 297.89 230.012 297.876 229.909 297.835C227.291 296.966 224.687 296.09 222.103 295.207C221.568 295.022 221.28 294.44 221.465 293.899C221.65 293.366 222.233 293.078 222.768 293.263C225.345 294.146 227.942 295.015 230.553 295.884C231.095 296.062 231.383 296.644 231.205 297.185C231.068 297.616 230.663 297.89 230.231 297.89ZM214.666 292.572C214.55 292.572 214.44 292.551 214.324 292.51C211.719 291.593 209.135 290.669 206.572 289.738C206.038 289.546 205.763 288.958 205.955 288.424C206.147 287.89 206.743 287.616 207.271 287.808C209.828 288.739 212.405 289.663 215.009 290.573C215.544 290.765 215.825 291.346 215.64 291.88C215.489 292.305 215.091 292.572 214.666 292.572ZM199.204 286.953C199.081 286.953 198.964 286.932 198.841 286.884C196.25 285.912 193.687 284.933 191.144 283.955C190.617 283.749 190.349 283.154 190.555 282.627C190.76 282.1 191.357 281.833 191.884 282.038C194.42 283.017 196.977 283.996 199.561 284.961C200.095 285.159 200.363 285.755 200.164 286.282C200.013 286.699 199.622 286.953 199.204 286.953ZM183.866 281.019C183.735 281.019 183.612 280.998 183.482 280.943C180.939 279.93 178.369 278.89 175.847 277.85C175.319 277.631 175.072 277.035 175.292 276.508C175.511 275.981 176.107 275.735 176.635 275.954C179.15 276.987 181.713 278.028 184.249 279.041C184.777 279.253 185.031 279.848 184.825 280.375C184.661 280.772 184.27 281.019 183.866 281.019ZM168.657 274.749C168.52 274.749 168.383 274.722 168.253 274.667C165.71 273.586 163.167 272.484 160.693 271.396C160.172 271.17 159.939 270.561 160.165 270.041C160.391 269.52 161.001 269.288 161.522 269.514C163.983 270.595 166.519 271.697 169.055 272.778C169.575 273.004 169.822 273.606 169.596 274.126C169.438 274.517 169.055 274.749 168.657 274.749ZM153.606 268.117C153.462 268.117 153.318 268.09 153.181 268.021C150.666 266.872 148.151 265.708 145.711 264.551C145.197 264.312 144.977 263.696 145.224 263.183C145.464 262.669 146.081 262.45 146.595 262.697C149.028 263.847 151.536 265.01 154.045 266.153C154.559 266.386 154.792 266.995 154.552 267.515C154.367 267.891 153.997 268.117 153.606 268.117ZM138.733 261.081C138.583 261.081 138.425 261.047 138.281 260.979C135.8 259.761 133.319 258.515 130.913 257.29C130.406 257.03 130.207 256.414 130.468 255.907C130.728 255.401 131.345 255.202 131.852 255.462C134.244 256.687 136.718 257.926 139.193 259.138C139.7 259.391 139.912 260 139.659 260.513C139.48 260.869 139.11 261.081 138.733 261.081ZM124.087 253.594C123.922 253.594 123.758 253.553 123.6 253.471C121.14 252.157 118.7 250.829 116.363 249.522C115.869 249.248 115.691 248.618 115.965 248.125C116.246 247.633 116.87 247.455 117.363 247.728C119.694 249.029 122.113 250.35 124.567 251.657C125.067 251.924 125.259 252.547 124.992 253.046C124.813 253.395 124.457 253.594 124.087 253.594ZM109.728 245.572C109.55 245.572 109.372 245.525 109.207 245.429C106.795 244.012 104.417 242.582 102.141 241.172C101.661 240.871 101.511 240.241 101.812 239.755C102.114 239.276 102.744 239.125 103.231 239.426C105.493 240.829 107.857 242.253 110.256 243.656C110.743 243.944 110.907 244.573 110.619 245.059C110.427 245.395 110.085 245.572 109.728 245.572ZM95.7603 236.901C95.5683 236.901 95.3696 236.846 95.1914 236.73C92.8405 235.176 90.5445 233.616 88.3719 232.076C87.9058 231.747 87.7962 231.104 88.1251 230.645C88.4541 230.18 89.0915 230.07 89.5576 230.399C91.7097 231.925 93.9851 233.479 96.3223 235.012C96.7952 235.327 96.9254 235.963 96.617 236.435C96.4182 236.743 96.0892 236.901 95.7603 236.901ZM82.3474 227.394C82.1281 227.394 81.9088 227.326 81.7237 227.182C79.462 225.444 77.2962 223.692 75.288 221.981C74.8562 221.611 74.8014 220.968 75.1715 220.536C75.5416 220.105 76.1927 220.05 76.6245 220.42C78.6052 222.104 80.7436 223.835 82.978 225.553C83.4303 225.902 83.5125 226.546 83.163 226.991C82.9574 227.257 82.6558 227.394 82.3474 227.394ZM69.8667 216.704C69.6062 216.704 69.3526 216.608 69.147 216.416C67.5501 214.863 66.0423 213.309 64.6784 211.79C64.3014 211.365 64.3357 210.722 64.7538 210.339C65.1787 209.962 65.8229 209.996 66.2068 210.414C67.5432 211.899 69.01 213.418 70.5795 214.938C70.9838 215.335 70.9975 215.985 70.6 216.389C70.4013 216.601 70.134 216.704 69.8667 216.704Z" fill="white"/>
<path d="M472.067 265.195C471.868 265.195 471.669 265.14 471.498 265.024L471.341 264.921C470.868 264.606 470.744 263.97 471.06 263.498C471.375 263.025 472.012 262.902 472.485 263.217L472.636 263.32C473.109 263.634 473.232 264.271 472.917 264.743C472.725 265.031 472.396 265.195 472.067 265.195ZM465.014 260.616C464.829 260.616 464.638 260.568 464.466 260.459C462.211 259.042 459.86 257.605 457.468 256.188C456.982 255.9 456.817 255.271 457.112 254.778C457.4 254.292 458.03 254.128 458.524 254.422C460.93 255.846 463.294 257.297 465.563 258.72C466.043 259.021 466.186 259.658 465.885 260.137C465.686 260.452 465.35 260.616 465.014 260.616ZM450.875 252.218C450.704 252.218 450.532 252.177 450.368 252.088C448.045 250.774 445.625 249.446 443.185 248.125C442.685 247.859 442.5 247.236 442.767 246.736C443.034 246.236 443.658 246.052 444.158 246.319C446.612 247.64 449.038 248.981 451.375 250.295C451.869 250.576 452.047 251.199 451.766 251.691C451.581 252.027 451.232 252.218 450.875 252.218ZM436.4 244.416C436.242 244.416 436.078 244.382 435.927 244.3C433.535 243.068 431.068 241.822 428.6 240.597C428.093 240.344 427.888 239.728 428.134 239.221C428.388 238.715 429.005 238.509 429.512 238.756C431.986 239.981 434.46 241.233 436.866 242.472C437.373 242.732 437.565 243.355 437.305 243.855C437.133 244.211 436.777 244.416 436.4 244.416ZM421.671 237.113C421.52 237.113 421.37 237.079 421.226 237.01C418.806 235.854 416.305 234.683 413.789 233.527C413.275 233.287 413.049 232.678 413.282 232.165C413.522 231.651 414.132 231.426 414.646 231.658C417.168 232.815 419.677 233.992 422.11 235.149C422.624 235.395 422.836 236.004 422.596 236.518C422.418 236.894 422.055 237.113 421.671 237.113ZM406.73 230.235C406.593 230.235 406.449 230.207 406.312 230.146C403.845 229.051 401.309 227.942 398.786 226.861C398.266 226.635 398.026 226.032 398.245 225.512C398.471 224.992 399.074 224.753 399.595 224.972C402.124 226.06 404.667 227.169 407.141 228.264C407.662 228.496 407.895 229.099 407.662 229.619C407.498 230.009 407.121 230.235 406.73 230.235ZM391.611 223.753C391.48 223.753 391.343 223.726 391.213 223.671C388.725 222.638 386.169 221.597 383.612 220.564C383.084 220.352 382.831 219.756 383.043 219.229C383.256 218.702 383.852 218.449 384.38 218.661C386.943 219.695 389.513 220.742 392.001 221.775C392.522 221.994 392.776 222.597 392.556 223.117C392.399 223.514 392.015 223.753 391.611 223.753ZM376.354 217.614C376.231 217.614 376.1 217.594 375.984 217.546C373.455 216.56 370.898 215.581 368.315 214.603C367.78 214.404 367.513 213.809 367.718 213.282C367.917 212.748 368.513 212.488 369.041 212.686C371.632 213.665 374.188 214.644 376.731 215.636C377.259 215.841 377.519 216.437 377.314 216.964C377.156 217.368 376.765 217.614 376.354 217.614ZM360.967 211.803C360.851 211.803 360.727 211.783 360.611 211.742C358.054 210.804 355.484 209.88 352.887 208.956C352.352 208.764 352.071 208.176 352.263 207.642C352.455 207.108 353.038 206.828 353.579 207.019C356.183 207.943 358.767 208.874 361.324 209.812C361.858 210.01 362.132 210.599 361.934 211.126C361.783 211.543 361.385 211.803 360.967 211.803Z" fill="white"/>
<path d="M226.702 174.222C226.633 174.222 226.571 174.215 226.503 174.201C223.796 173.667 221.102 173.154 218.436 172.661C217.881 172.559 217.511 172.025 217.613 171.463C217.716 170.909 218.251 170.54 218.813 170.642C221.493 171.135 224.186 171.655 226.9 172.182C227.455 172.292 227.819 172.832 227.709 173.387C227.613 173.879 227.181 174.222 226.702 174.222ZM210.527 171.224C210.465 171.224 210.41 171.217 210.348 171.21C207.648 170.738 204.927 170.286 202.247 169.848C201.685 169.759 201.308 169.232 201.397 168.671C201.486 168.11 202.021 167.733 202.576 167.822C205.263 168.26 207.991 168.719 210.698 169.184C211.26 169.28 211.63 169.814 211.534 170.375C211.452 170.875 211.02 171.224 210.527 171.224ZM194.29 168.589C194.242 168.589 194.187 168.582 194.139 168.575C191.418 168.165 188.684 167.774 186.011 167.412C185.449 167.336 185.058 166.816 185.133 166.255C185.209 165.694 185.73 165.297 186.292 165.379C188.978 165.749 191.72 166.139 194.448 166.549C195.01 166.631 195.393 167.158 195.311 167.72C195.229 168.226 194.79 168.589 194.29 168.589ZM177.999 166.365C177.957 166.365 177.916 166.365 177.868 166.358C175.134 166.022 172.392 165.701 169.712 165.413C169.15 165.352 168.739 164.845 168.801 164.284C168.862 163.723 169.377 163.312 169.932 163.374C172.618 163.668 175.374 163.983 178.115 164.325C178.677 164.393 179.081 164.907 179.006 165.468C178.951 165.981 178.506 166.365 177.999 166.365ZM161.645 164.585C161.611 164.585 161.584 164.585 161.549 164.578C158.801 164.325 156.053 164.085 153.373 163.887C152.804 163.846 152.386 163.353 152.427 162.785C152.468 162.217 152.969 161.799 153.531 161.841C156.224 162.046 158.986 162.279 161.741 162.539C162.303 162.593 162.721 163.093 162.667 163.654C162.612 164.188 162.166 164.585 161.645 164.585Z" fill="white"/>
<path d="M390.185 347.907C390.144 347.907 390.109 347.907 390.068 347.9C387.375 347.592 384.62 347.264 381.885 346.914C381.323 346.846 380.925 346.326 380.994 345.765C381.062 345.203 381.583 344.806 382.145 344.875C384.866 345.224 387.608 345.552 390.294 345.854C390.857 345.915 391.261 346.429 391.199 346.99C391.151 347.524 390.706 347.907 390.185 347.907ZM373.873 345.833C373.825 345.833 373.777 345.833 373.729 345.826C371.042 345.45 368.301 345.046 365.58 344.629C365.018 344.54 364.634 344.019 364.723 343.458C364.812 342.897 365.34 342.514 365.895 342.603C368.609 343.02 371.344 343.424 374.017 343.8C374.579 343.883 374.969 344.396 374.894 344.957C374.812 345.464 374.373 345.833 373.873 345.833ZM357.609 343.342C357.554 343.342 357.499 343.335 357.438 343.328C354.758 342.883 352.023 342.418 349.323 341.939C348.761 341.843 348.39 341.309 348.493 340.748C348.589 340.187 349.131 339.817 349.686 339.92C352.386 340.399 355.107 340.864 357.78 341.309C358.342 341.405 358.719 341.932 358.623 342.493C358.541 342.986 358.109 343.342 357.609 343.342ZM341.413 340.474C341.352 340.474 341.283 340.467 341.221 340.454C338.542 339.947 335.848 339.427 333.134 338.886C332.579 338.777 332.216 338.236 332.325 337.682C332.435 337.127 332.976 336.765 333.531 336.874C336.239 337.415 338.925 337.935 341.592 338.435C342.147 338.537 342.517 339.078 342.414 339.632C342.332 340.132 341.9 340.474 341.413 340.474ZM325.28 337.257C325.211 337.257 325.136 337.25 325.067 337.237C322.401 336.676 319.714 336.101 317.014 335.505C316.459 335.382 316.109 334.834 316.233 334.28C316.356 333.726 316.897 333.377 317.459 333.5C320.153 334.095 322.826 334.67 325.492 335.225C326.047 335.341 326.404 335.888 326.287 336.443C326.184 336.929 325.759 337.257 325.28 337.257ZM309.221 333.726C309.146 333.726 309.07 333.719 308.988 333.698C306.329 333.089 303.656 332.46 300.969 331.816C300.414 331.686 300.078 331.132 300.208 330.577C300.339 330.023 300.894 329.688 301.449 329.818C304.129 330.461 306.795 331.084 309.447 331.7C310.002 331.83 310.345 332.377 310.215 332.932C310.112 333.404 309.687 333.726 309.221 333.726ZM293.224 329.886C293.142 329.886 293.06 329.879 292.971 329.852C290.325 329.188 287.659 328.51 284.993 327.819C284.445 327.675 284.116 327.114 284.253 326.567C284.397 326.019 284.959 325.691 285.507 325.834C288.173 326.526 290.826 327.203 293.471 327.86C294.019 327.997 294.355 328.558 294.218 329.106C294.102 329.571 293.684 329.886 293.224 329.886ZM277.303 325.752C277.214 325.752 277.125 325.739 277.036 325.718C274.397 325.006 271.752 324.288 269.099 323.548C268.551 323.398 268.236 322.83 268.386 322.282C268.537 321.735 269.106 321.42 269.654 321.57C272.3 322.31 274.945 323.028 277.577 323.74C278.126 323.891 278.448 324.452 278.304 324.999C278.174 325.451 277.755 325.752 277.303 325.752ZM261.457 321.345C261.361 321.345 261.265 321.331 261.169 321.303C258.517 320.544 255.885 319.77 253.267 318.99C252.725 318.826 252.41 318.258 252.575 317.71C252.739 317.17 253.308 316.855 253.856 317.019C256.468 317.799 259.099 318.566 261.738 319.326C262.286 319.483 262.602 320.051 262.444 320.599C262.321 321.05 261.91 321.345 261.457 321.345ZM245.693 316.656C245.591 316.656 245.495 316.643 245.392 316.608C242.753 315.801 240.135 314.979 237.531 314.158C236.989 313.987 236.688 313.412 236.859 312.871C237.03 312.331 237.613 312.03 238.147 312.201C240.745 313.022 243.363 313.836 245.988 314.644C246.53 314.808 246.838 315.383 246.667 315.924C246.536 316.369 246.132 316.656 245.693 316.656ZM230.012 311.687C229.909 311.687 229.8 311.674 229.69 311.633C227.065 310.777 224.46 309.908 221.877 309.039C221.335 308.854 221.047 308.272 221.232 307.738C221.411 307.204 221.993 306.91 222.535 307.095C225.118 307.964 227.716 308.827 230.334 309.682C230.876 309.86 231.17 310.435 230.992 310.976C230.848 311.414 230.444 311.687 230.012 311.687ZM214.42 306.431C214.31 306.431 214.194 306.411 214.084 306.376C211.473 305.466 208.889 304.556 206.319 303.632C205.784 303.44 205.51 302.852 205.695 302.318C205.887 301.784 206.469 301.503 207.011 301.695C209.574 302.612 212.151 303.522 214.756 304.433C215.29 304.617 215.578 305.206 215.386 305.74C215.242 306.164 214.845 306.431 214.42 306.431ZM198.937 300.88C198.821 300.88 198.697 300.86 198.581 300.819C195.99 299.861 193.42 298.896 190.87 297.924C190.342 297.718 190.075 297.13 190.274 296.596C190.473 296.069 191.069 295.802 191.603 296C194.146 296.966 196.71 297.931 199.293 298.889C199.828 299.087 200.095 299.676 199.903 300.21C199.746 300.627 199.355 300.88 198.937 300.88ZM183.571 295.022C183.447 295.022 183.317 295.001 183.194 294.947C180.617 293.934 178.067 292.914 175.545 291.887C175.017 291.675 174.764 291.073 174.983 290.553C175.196 290.026 175.792 289.772 176.32 289.991C178.835 291.011 181.378 292.031 183.948 293.037C184.476 293.242 184.736 293.838 184.53 294.372C184.366 294.775 183.975 295.022 183.571 295.022ZM168.328 288.828C168.198 288.828 168.061 288.8 167.931 288.746C165.388 287.678 162.838 286.59 160.357 285.515C159.836 285.289 159.596 284.687 159.823 284.167C160.049 283.647 160.652 283.407 161.173 283.633C163.647 284.708 166.19 285.789 168.726 286.857C169.246 287.076 169.493 287.678 169.274 288.198C169.109 288.588 168.726 288.828 168.328 288.828ZM153.236 282.278C153.092 282.278 152.955 282.251 152.818 282.189C150.303 281.06 147.78 279.91 145.327 278.767C144.813 278.527 144.587 277.918 144.826 277.405C145.066 276.892 145.676 276.666 146.19 276.905C148.637 278.041 151.146 279.191 153.661 280.32C154.175 280.553 154.408 281.162 154.175 281.676C154.004 282.052 153.634 282.278 153.236 282.278ZM138.322 275.345C138.171 275.345 138.021 275.31 137.877 275.242C135.382 274.037 132.894 272.812 130.481 271.601C129.974 271.348 129.769 270.732 130.022 270.225C130.276 269.719 130.893 269.513 131.4 269.767C133.799 270.971 136.28 272.19 138.768 273.387C139.282 273.634 139.494 274.25 139.247 274.756C139.076 275.126 138.706 275.345 138.322 275.345ZM123.628 267.96C123.47 267.96 123.306 267.919 123.148 267.843C120.687 266.557 118.247 265.25 115.876 263.956C115.376 263.682 115.198 263.059 115.465 262.56C115.739 262.06 116.363 261.882 116.863 262.149C119.221 263.436 121.654 264.736 124.101 266.016C124.601 266.276 124.8 266.899 124.532 267.399C124.354 267.761 123.998 267.96 123.628 267.96ZM109.194 260.068C109.022 260.068 108.844 260.027 108.68 259.932C106.26 258.549 103.868 257.139 101.572 255.75C101.086 255.455 100.928 254.826 101.223 254.34C101.517 253.854 102.148 253.697 102.635 253.991C104.924 255.373 107.302 256.77 109.701 258.145C110.194 258.426 110.366 259.056 110.078 259.548C109.893 259.884 109.55 260.068 109.194 260.068ZM95.1228 251.561C94.9309 251.561 94.739 251.506 94.5677 251.397C92.2031 249.877 89.8866 248.351 87.6865 246.845C87.2204 246.524 87.0971 245.887 87.4192 245.415C87.7413 244.95 88.3787 244.826 88.8516 245.148C91.038 246.64 93.334 248.16 95.6849 249.665C96.1646 249.973 96.3017 250.61 95.9933 251.082C95.7945 251.39 95.4587 251.561 95.1228 251.561ZM81.5592 242.26C81.3468 242.26 81.1343 242.191 80.9492 242.061C78.6669 240.371 76.4669 238.674 74.4107 237.004C73.9721 236.648 73.9036 235.997 74.26 235.559C74.6163 235.121 75.2675 235.053 75.7061 235.409C77.7348 237.058 79.9143 238.742 82.1761 240.412C82.6353 240.747 82.7312 241.391 82.3885 241.849C82.1898 242.116 81.8745 242.26 81.5592 242.26ZM68.818 231.877C68.5713 231.877 68.3246 231.788 68.1258 231.61C65.9806 229.653 63.9861 227.702 62.2042 225.8C61.8135 225.389 61.834 224.739 62.2521 224.349C62.6634 223.958 63.3145 223.979 63.7051 224.397C65.4528 226.258 67.4062 228.175 69.5171 230.091C69.9352 230.474 69.9695 231.124 69.5857 231.542C69.3732 231.768 69.0991 231.877 68.818 231.877Z" fill="white"/>
<path d="M435.728 350.87H435.721C433.042 350.85 430.266 350.795 427.476 350.706C426.908 350.685 426.462 350.213 426.483 349.645C426.503 349.077 426.983 348.632 427.545 348.653C430.321 348.742 433.083 348.796 435.742 348.817C436.311 348.824 436.77 349.282 436.763 349.85C436.75 350.419 436.29 350.87 435.728 350.87ZM443.953 350.829C443.398 350.829 442.939 350.384 442.925 349.823C442.911 349.255 443.363 348.79 443.932 348.776C446.729 348.721 449.484 348.625 452.116 348.488C452.705 348.461 453.164 348.892 453.199 349.46C453.226 350.028 452.794 350.508 452.225 350.542C449.566 350.679 446.79 350.774 443.973 350.829C443.967 350.829 443.96 350.829 443.953 350.829ZM460.375 349.967C459.847 349.967 459.401 349.563 459.353 349.036C459.305 348.468 459.717 347.975 460.285 347.92C463.089 347.667 465.823 347.359 468.407 346.996C468.969 346.921 469.49 347.311 469.565 347.873C469.641 348.434 469.25 348.954 468.688 349.029C466.07 349.392 463.308 349.707 460.47 349.96C460.436 349.96 460.409 349.967 460.375 349.967ZM476.652 347.667C476.173 347.667 475.748 347.332 475.645 346.846C475.535 346.291 475.891 345.751 476.447 345.634C479.25 345.066 481.909 344.416 484.349 343.698C484.891 343.54 485.466 343.848 485.624 344.396C485.781 344.936 485.473 345.511 484.925 345.669C482.43 346.401 479.716 347.065 476.851 347.647C476.789 347.66 476.721 347.667 476.652 347.667Z" fill="white"/>
<path d="M468.325 277.829C468.126 277.829 467.927 277.774 467.756 277.658L467.598 277.555C467.125 277.24 467.002 276.604 467.317 276.132C467.633 275.659 468.27 275.536 468.743 275.851L468.894 275.954C469.367 276.268 469.49 276.905 469.175 277.377C468.976 277.672 468.654 277.829 468.325 277.829ZM461.265 273.257C461.08 273.257 460.888 273.209 460.717 273.1C458.462 271.683 456.111 270.246 453.719 268.829C453.233 268.541 453.068 267.912 453.363 267.419C453.651 266.933 454.281 266.769 454.775 267.063C457.181 268.493 459.545 269.938 461.814 271.361C462.293 271.662 462.437 272.299 462.136 272.778C461.944 273.086 461.608 273.257 461.265 273.257ZM447.133 264.852C446.962 264.852 446.79 264.811 446.626 264.722C444.302 263.408 441.883 262.08 439.443 260.766C438.943 260.499 438.758 259.877 439.025 259.377C439.292 258.877 439.916 258.693 440.416 258.96C442.87 260.28 445.296 261.622 447.633 262.936C448.127 263.217 448.305 263.839 448.024 264.332C447.839 264.668 447.489 264.852 447.133 264.852ZM432.658 257.05C432.5 257.05 432.336 257.016 432.185 256.934C429.793 255.702 427.326 254.456 424.858 253.231C424.351 252.978 424.145 252.362 424.392 251.855C424.646 251.349 425.262 251.143 425.77 251.39C428.244 252.615 430.718 253.867 433.124 255.106C433.631 255.366 433.823 255.989 433.562 256.489C433.391 256.845 433.028 257.05 432.658 257.05ZM417.922 249.747C417.771 249.747 417.621 249.713 417.477 249.645C415.057 248.488 412.556 247.318 410.04 246.161C409.526 245.921 409.3 245.312 409.533 244.799C409.773 244.286 410.383 244.06 410.897 244.292C413.419 245.449 415.928 246.626 418.361 247.783C418.875 248.029 419.087 248.638 418.847 249.152C418.676 249.528 418.306 249.747 417.922 249.747ZM402.981 242.876C402.844 242.876 402.7 242.848 402.563 242.787C400.102 241.698 397.573 240.59 395.037 239.501C394.516 239.276 394.277 238.673 394.496 238.153C394.722 237.633 395.325 237.393 395.846 237.612C398.389 238.701 400.932 239.809 403.392 240.905C403.913 241.137 404.146 241.74 403.913 242.26C403.755 242.65 403.378 242.876 402.981 242.876ZM387.868 236.387C387.738 236.387 387.601 236.36 387.471 236.305C384.983 235.272 382.426 234.231 379.87 233.198C379.342 232.986 379.089 232.39 379.301 231.863C379.514 231.336 380.11 231.083 380.638 231.295C383.201 232.329 385.771 233.376 388.259 234.409C388.78 234.628 389.033 235.231 388.814 235.751C388.657 236.148 388.273 236.387 387.868 236.387ZM372.612 230.248C372.488 230.248 372.358 230.228 372.242 230.18C369.713 229.194 367.156 228.215 364.572 227.237C364.038 227.038 363.77 226.443 363.976 225.916C364.175 225.382 364.771 225.122 365.299 225.32C367.89 226.299 370.446 227.278 372.989 228.27C373.517 228.475 373.777 229.071 373.571 229.598C373.414 230.002 373.023 230.248 372.612 230.248ZM357.225 224.437C357.109 224.437 356.985 224.417 356.869 224.376C354.312 223.438 351.742 222.514 349.145 221.59C348.61 221.399 348.329 220.81 348.521 220.276C348.713 219.742 349.295 219.462 349.837 219.653C352.441 220.577 355.025 221.508 357.582 222.446C358.116 222.644 358.39 223.233 358.191 223.76C358.041 224.184 357.643 224.437 357.225 224.437Z" fill="white"/>
<path d="M222.959 186.856C222.891 186.856 222.829 186.849 222.761 186.835C220.053 186.302 217.36 185.788 214.694 185.295C214.139 185.193 213.768 184.659 213.871 184.098C213.974 183.543 214.509 183.174 215.071 183.276C217.75 183.769 220.444 184.289 223.158 184.816C223.713 184.926 224.077 185.467 223.967 186.021C223.871 186.514 223.439 186.856 222.959 186.856ZM206.784 183.858C206.723 183.858 206.668 183.851 206.606 183.845C203.906 183.372 201.185 182.921 198.505 182.483C197.943 182.394 197.566 181.867 197.655 181.305C197.744 180.744 198.279 180.368 198.834 180.457C201.521 180.895 204.249 181.353 206.956 181.819C207.518 181.914 207.888 182.448 207.792 183.01C207.71 183.509 207.278 183.858 206.784 183.858ZM190.548 181.23C190.5 181.23 190.445 181.223 190.397 181.216C187.676 180.806 184.941 180.416 182.268 180.053C181.706 179.978 181.316 179.457 181.391 178.896C181.467 178.335 181.987 177.938 182.549 178.02C185.236 178.39 187.978 178.78 190.705 179.19C191.267 179.273 191.651 179.8 191.569 180.361C191.487 180.86 191.048 181.23 190.548 181.23ZM174.25 178.999C174.208 178.999 174.167 178.999 174.119 178.992C171.385 178.657 168.643 178.335 165.963 178.047C165.401 177.986 164.99 177.479 165.052 176.918C165.113 176.357 165.627 175.946 166.183 176.008C168.869 176.302 171.625 176.617 174.366 176.959C174.928 177.028 175.332 177.541 175.257 178.102C175.209 178.616 174.764 178.999 174.25 178.999ZM157.896 177.226C157.862 177.226 157.835 177.226 157.8 177.219C155.052 176.966 152.304 176.727 149.624 176.528C149.055 176.487 148.637 175.994 148.678 175.426C148.719 174.858 149.22 174.441 149.782 174.482C152.475 174.687 155.237 174.92 157.992 175.18C158.554 175.234 158.972 175.734 158.918 176.295C158.87 176.822 158.424 177.226 157.896 177.226Z" fill="white"/>
<path d="M120.817 466.592C118.96 466.592 117.103 466.277 115.314 465.634C79.2698 452.651 49.456 437.977 29.1003 423.2C7.9496 407.848 -1.76217 393.154 1.02046 380.711C1.14382 380.157 1.69212 379.808 2.24728 379.931C2.80243 380.054 3.15197 380.602 3.02861 381.156C-2.22823 404.686 42.1224 437.087 116.013 463.697C119.837 465.073 124.073 464.744 127.637 462.787C131.194 460.836 133.737 457.448 134.621 453.492L206.51 133.697C208.066 126.737 204.159 119.694 197.429 117.319C160.398 104.247 129.7 89.3879 108.645 74.3375C86.7952 58.719 76.7339 43.7713 79.5645 31.1232C79.6879 30.5689 80.2293 30.2198 80.7913 30.343C81.3465 30.4662 81.696 31.0137 81.5726 31.5681C78.9408 43.347 88.7143 57.5624 109.844 72.6607C130.741 87.6016 161.268 102.371 198.114 115.375C205.824 118.099 210.3 126.162 208.518 134.142L136.629 453.944C135.615 458.475 132.702 462.349 128.624 464.587C126.211 465.915 123.518 466.592 120.817 466.592Z" fill="black"/>
<path d="M177.355 183.858C176.258 183.858 175.155 183.674 174.099 183.311C121.956 165.187 82.9713 143.32 67.1459 123.328C66.7963 122.883 66.8717 122.24 67.3172 121.884C67.7627 121.535 68.407 121.61 68.7634 122.055C84.3557 141.753 122.997 163.374 174.778 181.374C176.889 182.106 179.226 181.908 181.186 180.82C183.153 179.731 184.558 177.856 185.045 175.673L186.395 169.643L191.583 141.103L192.447 137.222C193.434 132.808 190.946 128.359 186.655 126.874C135.382 109.161 96.4389 87.6837 79.8185 67.9451C79.4553 67.5139 79.5101 66.8637 79.9419 66.5009C80.3737 66.1382 81.0248 66.1929 81.388 66.6241C97.7823 86.089 136.396 107.34 187.327 124.937C192.604 126.757 195.668 132.233 194.455 137.674L193.598 141.513L188.41 170.054L187.053 176.124C186.436 178.876 184.668 181.237 182.187 182.613C180.692 183.434 179.027 183.858 177.355 183.858Z" fill="black"/>
<path d="M134.978 361.493C133.882 361.493 132.778 361.308 131.723 360.945C84.2258 344.437 47.9828 325.081 29.6557 306.452C29.2582 306.048 29.2651 305.398 29.6694 305.001C30.0738 304.604 30.7249 304.61 31.1224 305.014C48.9698 323.158 85.8844 342.835 132.401 359.001C134.512 359.734 136.849 359.535 138.809 358.447C140.777 357.359 142.182 355.483 142.668 353.3L144.018 347.27L176.272 213.589L177.129 209.764C178.116 205.349 175.628 200.9 171.338 199.415C120.064 181.702 81.121 160.225 64.5005 140.487C64.1372 140.055 64.1921 139.405 64.6239 139.042C65.0556 138.68 65.7068 138.734 66.07 139.166C82.4643 158.624 121.079 179.882 172.009 197.478C177.287 199.299 180.35 204.774 179.137 210.215L178.281 214.055L146.027 347.736L144.683 353.752C144.066 356.503 142.298 358.864 139.817 360.24C138.316 361.075 136.651 361.493 134.978 361.493Z" fill="black"/>
<path d="M116.335 438.791C115.239 438.791 114.135 438.606 113.08 438.243C71.1828 423.679 37.2292 406.445 17.4766 389.718C17.0449 389.349 16.99 388.705 17.3601 388.274C17.7234 387.843 18.3745 387.788 18.8063 388.158C38.3669 404.721 72.0875 421.824 113.758 436.307C115.869 437.039 118.206 436.84 120.167 435.752C122.134 434.664 123.539 432.789 124.025 430.605L125.376 424.576L133.086 390.806L133.943 386.974C134.93 382.559 132.442 378.11 128.151 376.625C83.4168 361.171 48.0719 342.917 28.6277 325.218C28.2097 324.835 28.1754 324.185 28.5592 323.767C28.943 323.35 29.5941 323.316 30.0122 323.699C49.2576 341.213 84.3489 359.316 128.823 374.681C134.1 376.502 137.164 381.977 135.951 387.418L135.094 391.258L127.384 425.027L126.033 431.057C125.417 433.808 123.648 436.177 121.167 437.545C119.673 438.367 118.008 438.791 116.335 438.791Z" fill="black"/>
<path d="M307.315 498.116C306.972 498.116 306.623 498.089 306.267 498.034C290.366 495.563 274.095 492.484 257.899 488.87C254.952 488.213 253.102 485.29 253.76 482.354L262.779 442.001C262.889 441.508 263.197 441.07 263.622 440.803C264.054 440.529 264.568 440.44 265.068 440.55L265.411 440.625C282.361 444.403 299.392 447.599 316.033 450.125C317.897 450.405 319.577 451.459 320.639 453.006C321.701 454.56 322.078 456.497 321.667 458.338L313.97 492.785C313.264 495.94 310.447 498.116 307.315 498.116ZM264.753 442.596L255.768 482.806C255.357 484.64 256.508 486.461 258.338 486.864C274.499 490.465 290.729 493.538 306.589 496.002C309.063 496.385 311.421 494.776 311.962 492.347L319.659 457.9C319.947 456.62 319.686 455.265 318.939 454.177C318.199 453.095 317.027 452.363 315.725 452.164C299.036 449.632 281.956 446.422 264.966 442.637L264.753 442.596Z" fill="black"/>
<path d="M322.442 430.421C322.106 430.421 321.763 430.393 321.428 430.345C304.615 427.799 287.399 424.576 270.264 420.757C268.825 420.435 267.92 419.011 268.242 417.574L276.844 379.075C277.118 377.85 277.851 376.81 278.907 376.139C279.969 375.469 281.223 375.249 282.443 375.53L283.862 375.852C299.516 379.342 315.266 382.34 330.673 384.763C332.531 385.057 334.196 386.111 335.252 387.658C336.307 389.205 336.677 391.142 336.273 392.969L329.09 425.11C328.398 428.237 325.581 430.421 322.442 430.421ZM281.415 377.46C280.922 377.46 280.442 377.597 280.01 377.871C279.414 378.247 279.003 378.829 278.852 379.52L270.25 418.019C270.175 418.347 270.388 418.676 270.717 418.751C287.803 422.557 304.972 425.773 321.736 428.313C324.19 428.682 326.547 427.081 327.096 424.658L334.278 392.517C334.566 391.238 334.306 389.889 333.566 388.808C332.832 387.726 331.66 386.994 330.365 386.789C314.917 384.359 299.119 381.348 283.423 377.85L281.998 377.529C281.806 377.481 281.607 377.46 281.415 377.46Z" fill="black"/>
<path d="M418.963 373.169C418.929 373.169 418.902 373.169 418.867 373.169C380.102 372.635 335.375 366.947 289.516 356.729C287.563 356.291 285.897 355.121 284.821 353.437C283.745 351.746 283.396 349.748 283.834 347.79L291.319 314.322C291.716 312.543 292.785 311.023 294.321 310.052C295.863 309.073 297.693 308.758 299.475 309.155C344.477 319.182 388.464 324.842 426.688 325.519C428.744 325.554 430.656 326.498 431.924 328.113C433.199 329.729 433.672 331.802 433.219 333.808L425.612 367.858C424.926 370.944 422.137 373.169 418.963 373.169ZM297.974 311.03C297.076 311.03 296.199 311.284 295.424 311.776C294.348 312.461 293.601 313.522 293.327 314.76L285.842 348.235C285.527 349.652 285.781 351.11 286.562 352.328C287.343 353.553 288.55 354.402 289.968 354.717C335.69 364.908 380.274 370.575 418.895 371.109C418.915 371.109 418.936 371.109 418.963 371.109C421.177 371.109 423.124 369.555 423.61 367.399L431.218 333.349C431.533 331.946 431.197 330.502 430.313 329.373C429.422 328.243 428.093 327.586 426.653 327.559C388.293 326.881 344.154 321.208 299.022 311.147C298.673 311.071 298.323 311.03 297.974 311.03Z" fill="black"/>
<path d="M393.276 505.385C373.907 505.385 352.332 504.009 329.241 501.217C327.521 501.011 325.958 500.081 324.958 498.671C323.957 497.254 323.594 495.474 323.977 493.784L331.852 458.543C332.613 455.135 335.807 452.869 339.296 453.273C399.506 460.288 449.011 457.578 475.124 445.827C476.625 445.149 478.352 445.375 479.634 446.415C480.915 447.455 481.484 449.098 481.121 450.706L472.485 489.335C472.019 491.429 470.566 493.202 468.599 494.071C451.739 501.552 425.564 505.385 393.276 505.385ZM338.494 455.272C336.287 455.272 334.354 456.784 333.861 458.981L325.986 494.222C325.732 495.344 325.972 496.535 326.637 497.473C327.302 498.411 328.343 499.033 329.495 499.17C390.713 506.569 441.115 504.023 467.77 492.182C469.14 491.573 470.155 490.334 470.484 488.87L479.12 450.241C479.305 449.399 479.01 448.537 478.338 447.989C477.673 447.449 476.762 447.325 475.974 447.681C449.532 459.583 399.629 462.355 339.063 455.299C338.864 455.285 338.679 455.272 338.494 455.272Z" fill="black"/>
<path d="M405.113 437.196C386.176 437.196 365.203 435.896 342.949 433.254C341.592 433.097 340.365 432.364 339.577 431.256C338.789 430.147 338.508 428.751 338.802 427.416L346.431 393.277C347.198 389.848 350.413 387.583 353.915 388.014C412.638 395.214 462.17 393.243 489.791 382.607C491.21 382.06 492.8 382.333 493.951 383.326C495.103 384.311 495.61 385.851 495.281 387.33L488.05 419.675C487.612 421.64 486.337 423.303 484.548 424.233C468.119 432.775 440.074 437.196 405.113 437.196ZM353.072 390.019C350.865 390.019 348.932 391.532 348.439 393.729L340.81 427.868C340.639 428.627 340.804 429.435 341.256 430.072C341.708 430.708 342.414 431.126 343.189 431.221C406.127 438.695 458.613 435.403 483.595 422.413C484.843 421.763 485.74 420.606 486.042 419.23L493.273 386.885C493.437 386.145 493.184 385.379 492.608 384.886C492.032 384.393 491.237 384.256 490.531 384.53C462.602 395.283 412.713 397.302 353.661 390.06C353.469 390.026 353.271 390.019 353.072 390.019Z" fill="black"/>
<path d="M441.279 372.847C439.778 372.847 438.325 372.176 437.359 371.027C436.337 369.815 435.94 368.173 436.283 366.633L444.349 330.536C445.021 327.545 447.626 325.362 450.696 325.225C473.19 324.219 491.36 321.173 504.711 316.163C506.116 315.636 507.692 315.917 508.823 316.896C509.954 317.881 510.454 319.401 510.132 320.859L501.798 358.139C501.311 360.329 499.769 362.143 497.686 362.978C484.047 368.453 465.144 371.766 441.505 372.84C441.437 372.847 441.361 372.847 441.279 372.847ZM450.792 327.272C448.647 327.367 446.824 328.894 446.358 330.981L438.291 367.077C438.085 368.001 438.325 368.98 438.935 369.706C439.545 370.431 440.477 370.835 441.416 370.794C464.5 369.747 483.69 366.386 496.925 361.075C498.378 360.493 499.454 359.227 499.797 357.694L508.131 320.414C508.295 319.688 508.042 318.935 507.48 318.443C506.918 317.957 506.136 317.82 505.437 318.08C491.887 323.165 473.499 326.259 450.792 327.272Z" fill="black"/>
<path d="M386.997 528.053C348.87 528.053 303.546 522.557 256.865 512.154C252.656 511.216 248.393 510.224 244.192 509.218C235.782 507.192 230.471 498.692 232.349 490.266L274.184 303.098C275.109 298.957 277.707 295.302 281.305 293.058C284.903 290.813 289.338 290.101 293.464 291.086C297.494 292.051 301.586 293.003 305.643 293.906C361.104 306.267 414.618 311.681 456.337 309.148C476.556 307.923 492.874 304.891 504.841 300.148C517 295.33 524.039 288.965 525.766 281.251C525.889 280.697 526.437 280.348 526.993 280.471C527.548 280.594 527.897 281.142 527.774 281.696C524.093 298.156 498.769 308.628 456.467 311.202C414.57 313.748 360.85 308.313 305.204 295.912C301.14 295.008 297.028 294.057 292.991 293.085C289.4 292.223 285.541 292.845 282.402 294.796C279.27 296.747 277.008 299.936 276.199 303.536L234.364 490.704C232.726 498.041 237.352 505.447 244.679 507.213C248.859 508.219 253.116 509.204 257.317 510.142C312.778 522.503 366.299 527.916 408.011 525.384C428.23 524.159 444.549 521.127 456.515 516.384C468.674 511.565 475.713 505.2 477.44 497.487C477.563 496.933 478.111 496.584 478.667 496.707C479.222 496.83 479.571 497.377 479.448 497.932C475.767 514.392 450.443 524.864 408.141 527.437C401.383 527.855 394.324 528.053 386.997 528.053Z" fill="black"/>
<path d="M549.779 181.442C549.703 181.442 549.628 181.436 549.553 181.415C548.998 181.292 548.648 180.744 548.771 180.19C553.363 159.644 518.76 131.596 458.464 106.998C457.937 106.786 457.69 106.184 457.902 105.657C458.115 105.13 458.718 104.883 459.246 105.095C521.461 130.481 555.68 158.72 550.786 180.635C550.67 181.114 550.245 181.442 549.779 181.442Z" fill="#FDAD00"/>
<path d="M436.276 210.167C436.255 210.167 436.242 210.167 436.221 210.167C417.743 209.237 398.039 207.204 377.655 204.124C377.093 204.042 376.71 203.515 376.792 202.954C376.874 202.392 377.402 202.009 377.964 202.091C398.278 205.158 417.915 207.19 436.324 208.114C436.893 208.142 437.324 208.628 437.297 209.189C437.276 209.736 436.824 210.167 436.276 210.167Z" fill="black"/>
<path d="M470.452 210.557C469.896 210.557 469.444 210.119 469.424 209.565C469.403 208.997 469.848 208.525 470.417 208.504C499.231 207.567 521.547 203.173 534.959 195.781C535.453 195.507 536.083 195.685 536.358 196.185C536.632 196.684 536.454 197.307 535.953 197.581C522.259 205.13 499.621 209.62 470.486 210.564C470.472 210.557 470.458 210.557 470.452 210.557Z" fill="black"/>
<path d="M557.2 153.518C557.124 153.518 557.049 153.511 556.974 153.491C556.419 153.367 556.069 152.82 556.192 152.265C561.36 129.132 517.75 97.2792 445.086 71.107C444.551 70.9153 444.277 70.3267 444.469 69.7929C444.661 69.259 445.25 68.9853 445.785 69.1769C481.233 81.9413 510.553 96.3757 530.58 110.906C551.388 126.011 560.942 140.466 558.201 152.71C558.098 153.189 557.673 153.518 557.2 153.518Z" fill="#FDAD00"/>
<path d="M414.783 179.984C414.748 179.984 414.714 179.984 414.673 179.977C389.218 177.336 362.625 172.942 335.628 166.926C335.073 166.802 334.724 166.255 334.847 165.7C334.97 165.146 335.512 164.797 336.074 164.92C362.996 170.923 389.506 175.296 414.885 177.931C415.447 177.993 415.859 178.492 415.804 179.06C415.749 179.594 415.304 179.984 414.783 179.984Z" fill="black"/>
<path d="M466.223 182.825C462.028 182.825 457.717 182.756 453.29 182.626C452.721 182.613 452.276 182.134 452.296 181.572C452.317 181.004 452.776 180.559 453.352 180.58C500.334 181.983 535.398 175.543 549.531 162.894C549.956 162.518 550.607 162.552 550.984 162.977C551.361 163.401 551.326 164.051 550.901 164.428C537.523 176.391 507.695 182.825 466.223 182.825Z" fill="black"/>
<path d="M35.4739 25.2509C35.2134 25.2509 34.9462 25.1482 34.7474 24.9498L32.1226 22.3284C31.7182 21.9246 31.7182 21.2744 32.1226 20.8775C32.5269 20.4736 33.178 20.4736 33.5755 20.8775L36.2003 23.4919C36.6046 23.8957 36.6046 24.5459 36.2003 24.9429C36.0016 25.1482 35.7411 25.2509 35.4739 25.2509Z" fill="black"/>
<path d="M44.658 34.4083C44.3975 34.4083 44.1302 34.3057 43.9314 34.1072L41.3062 31.4927C40.9018 31.0889 40.9018 30.4387 41.3062 30.0417C41.7038 29.6379 42.3618 29.6379 42.7593 30.0417L45.3845 32.6562C45.7889 33.06 45.7889 33.7102 45.3845 34.1072C45.1789 34.3057 44.9184 34.4083 44.658 34.4083Z" fill="black"/>
<path d="M32.8493 34.4083C32.5889 34.4083 32.3216 34.3057 32.1228 34.1072C31.7253 33.7034 31.7253 33.0532 32.1228 32.6562L34.7478 30.0417C35.1522 29.6379 35.8033 29.6379 36.2008 30.0417C36.5984 30.4456 36.5984 31.0958 36.2008 31.4927L33.5758 34.1072C33.3771 34.3057 33.1166 34.4083 32.8493 34.4083Z" fill="black"/>
<path d="M42.0328 25.2511C41.7723 25.2511 41.505 25.1484 41.3062 24.9499C40.9018 24.5461 40.9018 23.8959 41.3062 23.499L43.9314 20.8845C44.3358 20.4807 44.987 20.4807 45.3845 20.8845C45.7889 21.2883 45.7889 21.9385 45.3845 22.3354L42.7593 24.9499C42.5606 25.1484 42.2932 25.2511 42.0328 25.2511Z" fill="black"/>
<path d="M335.43 86.4516C335.17 86.4516 334.903 86.3489 334.704 86.1504L332.6 84.0493C332.195 83.6455 332.195 82.9953 332.6 82.5983C333.004 82.1945 333.655 82.1945 334.053 82.5983L336.157 84.6995C336.561 85.1033 336.561 85.7535 336.157 86.1504C335.958 86.3558 335.698 86.4516 335.43 86.4516Z" fill="black"/>
<path d="M342.804 93.8091C342.544 93.8091 342.277 93.7064 342.078 93.508L339.974 91.4068C339.569 91.003 339.569 90.3528 339.974 89.9558C340.378 89.552 341.029 89.552 341.427 89.9558L343.531 92.057C343.935 92.4608 343.935 93.111 343.531 93.508C343.325 93.7064 343.065 93.8091 342.804 93.8091Z" fill="black"/>
<path d="M333.326 93.809C333.065 93.809 332.798 93.7063 332.599 93.5079C332.202 93.1041 332.202 92.4539 332.599 92.0569L334.704 89.9557C335.108 89.5588 335.759 89.5519 336.157 89.9557C336.561 90.3595 336.561 91.0097 336.157 91.4067L334.052 93.5079C333.854 93.7063 333.586 93.809 333.326 93.809Z" fill="black"/>
<path d="M340.694 86.4516C340.433 86.4516 340.166 86.3489 339.967 86.1504C339.57 85.7466 339.57 85.0964 339.967 84.6995L342.071 82.5983C342.476 82.1945 343.127 82.1945 343.524 82.5983C343.922 83.0021 343.922 83.6523 343.524 84.0493L341.42 86.1504C341.221 86.3558 340.961 86.4516 340.694 86.4516Z" fill="black"/>
<path d="M497.186 44.4281C497.186 41.9026 499.242 39.8562 501.771 39.8562C504.3 39.8562 506.356 41.9026 506.356 44.4281C506.356 46.9536 504.3 49 501.771 49C499.235 49 497.186 46.9536 497.186 44.4281Z" fill="#CEDDF8" stroke="black" stroke-width="2" stroke-linejoin="bevel"/>
<path d="M75.1982 488.719C75.1982 486.194 77.2544 484.147 79.7834 484.147C82.3125 484.147 84.3686 486.194 84.3686 488.719C84.3686 491.245 82.3125 493.291 79.7834 493.291C77.2544 493.291 75.1982 491.245 75.1982 488.719Z" fill="#CEDDF8" stroke="black" stroke-width="2" stroke-linejoin="bevel"/>
<path d="M529.152 71.7844C525.575 71.7844 522.662 68.8824 522.662 65.3098C522.662 61.7371 525.575 58.8351 529.152 58.8351C532.73 58.8351 535.643 61.7371 535.643 65.3098C535.636 68.8824 532.73 71.7844 529.152 71.7844ZM529.152 60.8884C526.705 60.8884 524.718 62.8732 524.718 65.3098C524.718 67.7463 526.705 69.7311 529.152 69.7311C531.599 69.7311 533.587 67.7463 533.587 65.3098C533.58 62.8732 531.592 60.8884 529.152 60.8884Z" fill="black"/>
<path d="M21.6637 64.9607C18.038 64.9607 15.0908 62.0177 15.0908 58.4039C15.0908 54.7902 18.038 51.8472 21.6637 51.8472C25.2894 51.8472 28.2365 54.7902 28.2365 58.4039C28.2365 62.0177 25.2894 64.9607 21.6637 64.9607ZM21.6637 53.9005C19.1757 53.9005 17.147 55.9195 17.147 58.4039C17.147 60.8884 19.1689 62.9074 21.6637 62.9074C24.1516 62.9074 26.1804 60.8884 26.1804 58.4039C26.1804 55.9195 24.1516 53.9005 21.6637 53.9005Z" fill="black"/>
<path d="M23.288 95.8349C20.711 95.8349 18.6138 93.7406 18.6138 91.1672C18.6138 88.5938 20.711 86.4995 23.288 86.4995C25.8651 86.4995 27.9623 88.5938 27.9623 91.1672C27.9623 93.7406 25.8651 95.8349 23.288 95.8349ZM23.288 88.5527C21.8419 88.5527 20.6699 89.7231 20.6699 91.1672C20.6699 92.6113 21.8419 93.7817 23.288 93.7817C24.7342 93.7817 25.9062 92.6113 25.9062 91.1672C25.9062 89.7231 24.7342 88.5527 23.288 88.5527Z" fill="black"/>
<path d="M433.454 140.527C433.193 140.527 432.926 140.425 432.727 140.226L429.739 137.242C429.334 136.838 429.334 136.188 429.739 135.791C430.143 135.387 430.794 135.387 431.192 135.791L434.18 138.775C434.584 139.179 434.584 139.829 434.18 140.226C433.981 140.432 433.721 140.527 433.454 140.527Z" fill="black"/>
<path d="M443.919 150.972C443.658 150.972 443.391 150.869 443.192 150.671L440.204 147.687C439.8 147.283 439.8 146.633 440.204 146.236C440.609 145.832 441.26 145.832 441.657 146.236L444.645 149.22C445.05 149.624 445.05 150.274 444.645 150.671C444.447 150.869 444.186 150.972 443.919 150.972Z" fill="black"/>
<path d="M430.465 150.972C430.204 150.972 429.937 150.869 429.738 150.671C429.334 150.267 429.334 149.617 429.738 149.22L432.727 146.236C433.131 145.839 433.782 145.832 434.18 146.236C434.584 146.639 434.584 147.29 434.18 147.687L431.191 150.671C430.993 150.869 430.725 150.972 430.465 150.972Z" fill="black"/>
<path d="M440.93 140.527C440.67 140.527 440.403 140.425 440.204 140.226C439.806 139.822 439.806 139.172 440.204 138.775L443.192 135.791C443.597 135.394 444.248 135.387 444.645 135.791C445.05 136.195 445.05 136.845 444.645 137.242L441.657 140.226C441.458 140.432 441.191 140.527 440.93 140.527Z" fill="black"/>
<path d="M383.454 69.9708C383.365 69.9708 383.269 69.9571 383.173 69.9297C382.625 69.7723 382.31 69.211 382.46 68.6635L400.966 3.16454C401.116 2.61701 401.692 2.30218 402.234 2.45275C402.782 2.61016 403.097 3.17139 402.946 3.71892L384.441 69.2179C384.318 69.6765 383.9 69.9708 383.454 69.9708Z" fill="black"/>
<path d="M391.405 76.1238C391.137 76.1238 390.87 76.0212 390.664 75.809C390.267 75.3983 390.28 74.7481 390.692 74.358L427.873 38.4534C428.278 38.0564 428.936 38.0701 429.326 38.4807C429.724 38.8914 429.71 39.5416 429.299 39.9317L392.117 75.8364C391.925 76.028 391.665 76.1238 391.405 76.1238Z" fill="black"/>
<path d="M372.338 54.4412C371.783 54.4412 371.323 53.9964 371.31 53.4351L370.473 9.61174C370.46 9.04367 370.912 8.57827 371.481 8.56458C372.022 8.55773 372.516 9.0026 372.53 9.57067L373.366 53.3941C373.379 53.9621 372.927 54.4275 372.358 54.4412C372.345 54.4412 372.338 54.4412 372.338 54.4412Z" fill="black"/>
<path d="M70.792 474.408C70.792 472.793 72.1079 471.479 73.7254 471.479C75.3497 471.479 76.6588 472.793 76.6588 474.408C76.6588 476.023 75.3429 477.337 73.7254 477.337C72.1011 477.33 70.792 476.023 70.792 474.408Z" fill="#CEDDF8" stroke="black" stroke-width="2" stroke-linejoin="bevel"/>
</svg>
