<svg width="336" height="30" viewBox="0 0 336 30" fill="none" xmlns="http://www.w3.org/2000/svg">
<path d="M0 29.3595V0.740005H10.77C16.41 0.740005 19.9 3.44091 19.9 7.79236C19.9 10.0631 18.97 11.8637 17.23 13.0241L16.32 13.6143L17.34 13.9644C20.69 15.1048 22.52 17.6356 22.52 21.0668C22.52 26.1085 18.41 29.3695 12.07 29.3695H0V29.3595ZM6.87 24.4479H10.68C13.7 24.4479 15.49 22.9374 15.49 20.3966C15.49 17.9457 13.59 16.4152 10.54 16.4152H6.87V24.4479ZM6.86 11.7537H9.56C12.1 11.7537 13.5 10.6433 13.5 8.63264C13.5 6.66198 12.22 5.67165 9.69 5.67165H6.85V11.7537H6.86Z" fill="#FEFEFE"/>
<path d="M40.13 29.3595L32.37 18.4559H31.21V29.3595H24.35V0.740005H35.55C40.49 0.740005 45.8 3.52093 45.8 9.62297C45.8 13.2942 43.81 15.9951 40.05 17.4256L39.37 17.6757L48.51 29.3595H40.13ZM31.21 13.2942H34.15C37.12 13.2942 38.75 12.0138 38.75 9.69299C38.75 7.35221 37.01 6.02177 33.98 6.02177H31.2V13.2942H31.21Z" fill="#FEFEFE"/>
<path d="M62.3 30C53.29 30 46.74 23.6779 46.74 14.975C46.74 6.3021 53.29 0 62.3 0C71.31 0 77.85 6.3021 77.85 14.975C77.86 23.6779 71.31 30 62.3 30ZM62.3 6.14205C56.71 6.14205 53.78 10.5935 53.78 14.985C53.78 19.3965 56.7 23.868 62.3 23.868C67.83 23.868 70.82 19.2964 70.82 14.985C70.82 10.5835 67.89 6.14205 62.3 6.14205Z" fill="#FEFEFE"/>
<path d="M96.75 29.3595L86.76 17.2355V29.3595H79.9V0.740005H86.76V11.3035L95.72 0.740005H104.72L92.19 14.2245L105.7 29.3595H96.75Z" fill="#FEFEFE"/>
<path d="M106.59 29.3595V0.740005H125.66V6.44191L113.45 6.4319V12.604H123.47V17.4956H113.45V23.6576H125.66V29.3595H106.59Z" fill="#FEFEFE"/>
<path d="M143.86 29.3595L136.1 18.4559H134.94V29.3595H128.08V0.740005H139.28C144.22 0.740005 149.53 3.52093 149.53 9.62297C149.53 13.2942 147.55 15.9951 143.78 17.4256L143.1 17.6757L152.24 29.3595H143.86ZM134.95 13.2942H137.89C140.86 13.2942 142.49 12.0138 142.49 9.69299C142.49 7.35221 140.75 6.02177 137.72 6.02177H134.94V13.2942H134.95Z" fill="#FEFEFE"/>
<path d="M167.8 29.6799C159.02 29.6799 152.65 23.4378 152.65 14.8349C152.65 6.24207 159.02 0.00999451 167.8 0.00999451C171.21 0.00999451 174.37 0.960311 176.91 2.77091L177.09 2.90096L173.48 8.26274L173.29 8.08268C171.85 6.78225 169.94 6.07201 167.89 6.07201C162.46 6.07201 159.61 10.4935 159.61 14.8449C159.61 19.1864 162.45 23.5879 167.89 23.5879C169.92 23.5879 171.84 22.8676 173.29 21.5572L173.48 21.3771L177.09 26.7389L176.91 26.8689C174.35 28.7096 171.2 29.6799 167.8 29.6799Z" fill="#FCB421"/>
<path d="M195.92 29.0494V17.3956H185.7V29.0494H178.91V0.740005H185.7V11.8337H195.92V0.740005H202.7V29.0494H195.92Z" fill="#FCB421"/>
<path d="M278.01 29.6799C273.27 29.6799 269.52 28.2694 266.55 25.3785L266.39 25.2184L270.61 20.6569L270.78 20.8469C273.02 23.4478 275.62 23.998 277.41 23.998C279.43 23.998 281.49 23.0877 281.49 21.067C281.49 18.8663 279.25 18.006 276.74 17.2457C270.94 15.5652 268.35 12.8843 268.35 8.49283C268.35 3.17106 273.54 0 278.56 0C282.21 0 285.37 1.12037 288.18 3.42114L288.36 3.57119L284.36 8.06269L284.19 7.91264C282.41 6.36212 280.78 5.67189 278.85 5.67189C277.09 5.67189 275.29 6.5922 275.29 8.36279C275.29 10.0333 276.42 10.8936 280.3 12.1541C285.82 13.8446 288.61 16.8356 288.61 21.027C288.63 26.979 283.12 29.6799 278.01 29.6799Z" fill="#FCB421"/>
<path d="M290.84 29.0494V0.740005H309.7V6.38189L297.62 6.37188V12.4739H307.53V17.3155H297.62V23.4076H309.7V29.0494H290.84Z" fill="#FCB421"/>
<path d="M327.71 29.0494L320.04 18.2658H318.89V29.0494H312.1V0.740005H323.18C328.07 0.740005 333.32 3.49092 333.32 9.52293C333.32 13.1541 331.36 15.825 327.63 17.2355L326.96 17.4856L336 29.0494H327.71ZM318.89 13.1541H321.8C324.73 13.1541 326.35 11.8837 326.35 9.59296C326.35 7.28219 324.63 5.96175 321.63 5.96175H318.88V13.1541H318.89Z" fill="#FCB421"/>
<path d="M219.88 30C211.07 30 204.68 23.6779 204.68 14.975C204.68 6.2921 211.07 0 219.88 0C228.69 0 235.08 6.3021 235.08 14.975C235.06 23.6779 228.67 30 219.88 30ZM219.88 6.14205C214.42 6.14205 211.56 10.5835 211.56 14.985C211.56 19.3965 214.42 23.868 219.88 23.868C225.28 23.868 228.2 19.2964 228.2 14.985C228.2 10.5835 225.33 6.14205 219.88 6.14205Z" fill="#FCB421"/>
<path d="M252.77 30C243.96 30 237.57 23.6779 237.57 14.975C237.57 6.2921 243.96 0 252.77 0C261.57 0 267.97 6.3021 267.97 14.975C267.96 23.6779 261.57 30 252.77 30ZM252.77 6.14205C247.3 6.14205 244.45 10.5835 244.45 14.985C244.45 19.3965 247.31 23.868 252.77 23.868C258.17 23.868 261.09 19.2964 261.09 14.985C261.09 10.5835 258.23 6.14205 252.77 6.14205Z" fill="#FCB421"/>
<path d="M236.31 10.5935C238.35 10.5935 240.33 10.9136 242.19 11.4938C243.43 11.884 244.74 11.1037 245 9.80327C245 9.79327 245.01 9.77326 245.01 9.76326C245.24 8.67289 244.69 7.56252 243.68 7.15239C241.4 6.23208 238.92 5.72191 236.32 5.72191C233.72 5.72191 231.25 6.23208 228.97 7.15239C227.96 7.55252 227.41 8.67289 227.64 9.76326C227.64 9.77326 227.65 9.79327 227.65 9.80327C227.92 11.1037 229.22 11.884 230.46 11.4938C232.3 10.9136 234.27 10.5935 236.31 10.5935Z" fill="#FAB600"/>
</svg>
